<svg width="74" height="60" viewBox="0 0 74 60" fill="none" xmlns="http://www.w3.org/2000/svg">
<path d="M5.82781 51.3191L7.37475 52.2637L7.55378 52.1793L5.81586 51.1182C5.81801 51.189 5.82103 51.254 5.82781 51.3191Z" fill="#447BF8"/>
<path d="M3.78166 48.4064L4.64106 48.9311C4.73937 48.9446 4.84826 48.9691 4.99103 49.0431C5.0432 49.0701 5.27063 49.1917 5.45939 49.4308L11.4413 53.0831C11.508 53.0805 11.5771 53.0739 11.6483 53.0622C11.6682 53.059 11.6878 53.0554 11.707 53.0516L3.68805 48.1555C3.68983 48.165 3.69199 48.1747 3.6943 48.1847C3.71328 48.2663 3.74423 48.3403 3.78166 48.4064Z" fill="#447BF8"/>
<path d="M3.7314 46.711L12.9175 52.3198C12.9554 52.2807 12.9933 52.2399 13.0328 52.1965L3.6408 46.4618C3.68008 46.5413 3.70956 46.6257 3.7314 46.711ZM1.8149 45.347L1.38019 45.0815C1.41052 45.1086 1.44208 45.1351 1.47496 45.161C1.59396 45.2553 1.63609 45.2681 1.8149 45.347Z" fill="#447BF8"/>
<path d="M0.277464 42.9384L13.82 51.2074C13.8545 51.1642 13.8902 51.1222 13.9291 51.0804L0.27044 42.7407C0.269434 42.8045 0.271597 42.8704 0.277464 42.9384Z" fill="#447BF8"/>
<path d="M0.631805 41.4911L15.2786 50.4342C15.36 50.4288 15.4552 50.4236 15.5691 50.4179L0.709674 41.345C0.681662 41.3931 0.655884 41.442 0.631805 41.4911ZM29.0691 58.8545L30.9452 59.9999C31.0428 59.9982 31.1412 59.9932 31.2397 59.9861L29.0025 58.6201C29.0201 58.6993 29.0423 58.7778 29.0691 58.8545Z" fill="#447BF8"/>
<path d="M1.69647 40.4778L18.571 50.781C18.637 50.7629 18.6984 50.7383 18.7575 50.7011L1.79317 40.343C1.76261 40.3919 1.73328 40.4303 1.71399 40.4556L1.69647 40.4778ZM29.2394 57.295L33.3288 59.7919C33.4274 59.7866 33.5258 59.7821 33.6239 59.7783L29.32 57.1504L29.2394 57.295Z" fill="#447BF8"/>
<path d="M0.00771786 37.7827L19.0833 49.4298L19.0567 49.2833L19.0437 49.212L0.00139271 37.5852C-0.00154116 37.647 7.93305e-05 37.7106 0.00702523 37.7762L0.00771786 37.7827ZM29.8637 56.0121L36.0667 59.7995C36.1804 59.8047 36.2953 59.8103 36.4114 59.8162L29.9267 55.8568C29.9054 55.9102 29.8843 55.9621 29.8637 56.0121Z" fill="#447BF8"/>
<path d="M0.474518 36.4039L18.5894 47.4646C18.5947 47.4127 18.6025 47.3523 18.6141 47.2858L0.570904 36.269C0.541886 36.3099 0.510169 36.3519 0.474518 36.4039ZM30.3467 54.6433L39.0896 59.9816C39.1998 59.9876 39.315 59.9932 39.4337 59.9979L30.3938 54.4783C30.3783 54.5339 30.3626 54.5889 30.3467 54.6433Z" fill="#447BF8"/>
<path d="M0.784859 34.9291L19.2072 46.1776C19.2465 46.1421 19.2899 46.1045 19.3381 46.064L0.764557 34.7231C0.772431 34.7837 0.779455 34.8469 0.784859 34.9291ZM30.6963 53.1928L41.669 59.8927C41.7486 59.877 41.8256 59.8594 41.8996 59.8398L30.7207 53.0141C30.7141 53.0728 30.706 53.1322 30.6963 53.1928Z" fill="#447BF8"/>
<path d="M0.756592 33.2483L20.3838 45.2325C20.4351 45.1932 20.4822 45.1576 20.5256 45.1254L0.816243 33.0911C0.792321 33.1432 0.772568 33.1952 0.756592 33.2483ZM30.4974 51.4077L42.9755 59.0267C43.0068 58.97 43.0309 58.9193 43.0488 58.8778L30.4008 51.1551C30.4325 51.24 30.4652 51.323 30.4974 51.4077Z" fill="#447BF8"/>
<path d="M1.73932 32.1847L22.065 44.5952C22.1678 44.589 22.2693 44.5868 22.3693 44.5873L1.90077 32.0894C1.85423 32.1177 1.80106 32.1473 1.73932 32.1847ZM30.2127 49.5701L42.9523 57.3488C42.9258 57.2631 42.8983 57.1818 42.8706 57.1052L30.2444 49.3958C30.2328 49.4491 30.2219 49.5066 30.2127 49.5701Z" fill="#447BF8"/>
<path d="M2.11578 30.7509L26.4948 45.6361C26.7441 45.7162 26.9624 45.785 27.1554 45.8457L2.12227 30.561C2.11825 30.627 2.11632 30.6905 2.11578 30.7509ZM30.0742 47.8216L42.011 55.1101C41.9785 55.0272 41.9458 54.9426 41.9134 54.8566L29.8737 47.5055C29.9454 47.6039 30.0133 47.7091 30.0742 47.8216Z" fill="#447BF8"/>
<path d="M2.50461 29.3242L41.3639 53.0512C41.3489 52.9798 41.3343 52.9063 41.3203 52.8308L2.59166 29.1836L2.56719 29.2226C2.54698 29.2551 2.52598 29.2888 2.50461 29.3242Z" fill="#447BF8"/>
<path d="M27.7547 43.0778L41.173 51.2707C41.1725 51.2055 41.1725 51.141 41.173 51.077L28.0468 43.0623C27.939 43.0694 27.8413 43.0745 27.7547 43.0778Z" fill="#447BF8"/>
<path d="M26.4833 42.1079L3.66899 28.1777C3.60726 28.2016 3.54629 28.2287 3.48602 28.2598L26.4296 42.2687L26.4833 42.1079Z" fill="#447BF8"/>
<path d="M26.9432 40.7248L5.52123 27.645C5.49082 27.6891 5.45455 27.7321 5.41095 27.7714L26.8896 40.886L26.9432 40.7248Z" fill="#447BF8"/>
<path d="M30.0734 42.8302L41.2645 49.6632C41.2711 49.6087 41.2782 49.5489 41.2858 49.4824L30.3266 42.791C30.2408 42.8046 30.1567 42.8176 30.0734 42.8302Z" fill="#447BF8"/>
<path d="M32.1744 42.4488L41.4151 48.0911C41.4206 48.0255 41.4259 47.9644 41.4311 47.9073L32.4087 42.3984C32.3303 42.4153 32.2519 42.4325 32.1744 42.4488Z" fill="#447BF8"/>
<path d="M27.403 39.3415L3.82462 24.9446C3.88381 25.0099 3.94307 25.0728 4.0015 25.1345C4.12081 25.2611 4.22568 25.3592 4.32261 25.4425L27.3494 39.5026L27.403 39.3415Z" fill="#447BF8"/>
<path d="M34.1288 41.9786L41.868 46.704C41.9014 46.663 41.9385 46.6206 41.9795 46.5782L34.3483 41.9187C34.275 41.9391 34.2018 41.9587 34.1288 41.9786Z" fill="#447BF8"/>
<path d="M27.8628 37.9587L3.02989 22.7961C3.0278 22.8549 3.02703 22.9195 3.0285 22.9891L27.8091 38.1196L27.8628 37.9587Z" fill="#447BF8"/>
<path d="M35.9529 41.428L43.6436 46.1239C43.7813 46.1328 43.9033 46.1448 44.0191 46.1593L36.1571 41.3589C36.0891 41.3823 36.021 41.4051 35.9529 41.428Z" fill="#447BF8"/>
<path d="M28.3226 36.5753L3.35359 21.3298C3.33931 21.3905 3.3255 21.4464 3.31238 21.4983L28.269 36.7364L28.3226 36.5753Z" fill="#447BF8"/>
<path d="M37.6452 40.7979L47.1209 46.5836C47.2271 46.5838 47.3266 46.5804 47.4237 46.5747L37.8342 40.7195C37.7718 40.7456 37.7086 40.7717 37.6452 40.7979Z" fill="#447BF8"/>
<path d="M30.3278 36.1359L3.69708 19.876L3.61157 20.0175L30.0435 36.1564C30.1364 36.1503 30.2311 36.1435 30.3278 36.1359Z" fill="#447BF8"/>
<path d="M4.4302 18.6597L4.345 18.8013L30.6541 34.8652C30.6239 34.7846 30.5959 34.703 30.5703 34.6202L4.4302 18.6597Z" fill="#447BF8"/>
<path d="M39.2033 40.0853L49.6593 46.4696C49.7733 46.4708 49.8817 46.4723 49.9849 46.4745L39.3762 39.9968C39.3193 40.0268 39.2611 40.0559 39.2033 40.0853Z" fill="#447BF8"/>
<path d="M40.6179 39.2852L57.3053 49.4744C57.6167 49.589 57.8679 49.6767 58.0745 49.7503L40.7723 39.1858C40.721 39.219 40.6699 39.2525 40.6179 39.2852ZM60.5111 51.2381L59.229 50.4553C59.3954 50.6661 59.7509 51.0846 60.2983 51.2077C60.3238 51.2132 60.4012 51.2298 60.5111 51.2381Z" fill="#447BF8"/>
<path d="M5.3653 17.7605L30.3928 33.042C30.3965 32.9815 30.4031 32.92 30.4093 32.8585L5.58346 17.7C5.50459 17.72 5.43205 17.7403 5.3653 17.7605Z" fill="#447BF8"/>
<path d="M41.8789 38.3912L61.9992 50.6765L62.0395 50.6576C62.0968 50.6317 62.1405 50.6158 62.2036 50.6076L42.0155 38.281C41.9706 38.318 41.9246 38.3545 41.8789 38.3912Z" fill="#447BF8"/>
<path d="M7.60675 17.4651L30.7195 31.5774C30.7399 31.5264 30.7658 31.4761 30.7878 31.4255L7.94469 17.4777L7.8929 17.4747C7.79428 17.4696 7.6989 17.4664 7.60675 17.4651Z" fill="#447BF8"/>
<path d="M42.9731 37.3957L64.787 50.7149C64.9517 50.7201 65.0502 50.7216 65.1147 50.7213L43.0896 37.2729C43.0515 37.314 43.0121 37.3549 42.9731 37.3957Z" fill="#447BF8"/>
<path d="M10.1946 17.3814L31.4045 30.3319C31.4355 30.287 31.47 30.2426 31.5022 30.198L10.3463 17.2803C10.2957 17.3182 10.2448 17.3518 10.1946 17.3814Z" fill="#447BF8"/>
<path d="M10.8765 16.1339L32.3105 29.2216C32.3489 29.1799 32.3851 29.1383 32.4243 29.0972L10.8946 15.9512C10.8871 16.0162 10.8815 16.0769 10.8765 16.1339Z" fill="#447BF8"/>
<path d="M43.8849 36.2889L67.1077 50.4682C67.1374 50.4279 67.1653 50.3823 67.1963 50.3288L43.9775 36.1514C43.947 36.1974 43.9167 36.2431 43.8849 36.2889Z" fill="#447BF8"/>
<path d="M11.2726 14.7116L33.3554 28.1952C33.3979 28.1565 33.4412 28.1181 33.4842 28.0799L11.3354 14.5564L11.2726 14.7116Z" fill="#447BF8"/>
<path d="M44.5901 35.0551L67.9002 49.2878C67.9368 49.2432 67.9728 49.2005 68.0079 49.1598L44.6566 34.9019C44.6348 34.953 44.6133 35.0042 44.5901 35.0551Z" fill="#447BF8"/>
<path d="M45.0566 33.6761L68.948 48.2638C68.9977 48.2244 69.0452 48.1891 69.0918 48.1578L45.0939 33.5051C45.0822 33.5623 45.0696 33.6192 45.0566 33.6761Z" fill="#447BF8"/>
<path d="M30.9942 24.8961L11.8604 13.2134L11.8007 13.3707L31.375 25.3224C31.2433 25.1839 31.1159 25.0423 30.9942 24.8961Z" fill="#447BF8"/>
<path d="M29.6419 22.4066L12.401 11.8799C12.3774 11.929 12.3537 11.979 12.33 12.0301L29.7182 22.647C29.6912 22.5678 29.6659 22.4877 29.6419 22.4066Z" fill="#447BF8"/>
<path d="M45.2433 32.0156C45.2433 32.0524 45.2415 32.0883 45.2408 32.125L70.4126 47.4944C70.43 47.4498 70.4497 47.3979 70.4724 47.3373L45.2392 31.9304C45.2398 31.959 45.2433 31.9868 45.2433 32.0156Z" fill="#447BF8"/>
<path d="M45.0067 30.3186L70.8571 46.1022C70.8578 46.0259 70.8526 45.9607 70.8462 45.9019L44.934 30.0803C44.9601 30.1593 44.9841 30.2388 45.0067 30.3186Z" fill="#447BF8"/>
<path d="M29.3519 20.5664L13.077 10.6292L12.9946 10.7724L29.3604 20.7651C29.3566 20.6995 29.3542 20.6331 29.3519 20.5664Z" fill="#447BF8"/>
<path d="M43.6118 27.8031L71.6118 44.8993C71.6831 44.8739 71.7511 44.855 71.8223 44.8341L43.1955 27.355C43.3425 27.502 43.4808 27.6515 43.6118 27.8031Z" fill="#447BF8"/>
<path d="M29.4462 18.96L13.8309 9.42554C13.7995 9.46868 13.7677 9.51366 13.735 9.56082L29.4203 19.138C29.4282 19.0781 29.4372 19.0191 29.4462 18.96Z" fill="#447BF8"/>
<path d="M72.8918 43.8232L41.8013 24.8398C41.7623 24.8801 41.7201 24.9193 41.6793 24.9591L72.8729 44.0054C72.8827 43.9508 72.8884 43.8909 72.8918 43.8232Z" fill="#447BF8"/>
<path d="M29.8018 17.513L14.8784 8.40088C14.8224 8.43083 14.7695 8.463 14.7189 8.49719L29.7487 17.6742C29.7659 17.6203 29.7835 17.5664 29.8018 17.513Z" fill="#447BF8"/>
<path d="M72.9434 42.1913L42.6316 23.6833C42.6074 23.7324 42.5789 23.78 42.5522 23.8284L72.9105 42.365C72.9196 42.3133 72.9305 42.2558 72.9434 42.1913Z" fill="#447BF8"/>
<path d="M30.3793 16.202L19.0791 9.30225C19.0027 9.33265 18.9414 9.35225 18.8863 9.36838L18.8753 9.37162L30.3027 16.349C30.3283 16.3003 30.3531 16.2508 30.3793 16.202Z" fill="#447BF8"/>
<path d="M31.1517 15.0097L20.4714 8.48853L20.3885 8.54386L20.3195 8.58954L31.0535 15.1434C31.0861 15.0988 31.1183 15.0539 31.1517 15.0097Z" fill="#447BF8"/>
<path d="M73.251 40.7151L43.0264 22.2603C43.0218 22.3215 43.0171 22.3827 43.0097 22.4438L73.2441 40.9045C73.2496 40.8395 73.2517 40.7764 73.251 40.7151Z" fill="#447BF8"/>
<path d="M32.0965 13.9226L24.2291 9.1189C23.9808 9.02112 23.8074 8.89996 23.6604 8.77162L22.261 7.91717C22.1546 7.8988 22.0288 7.88484 21.8903 7.88452L31.9784 14.0443C32.0176 14.0035 32.0568 13.9629 32.0965 13.9226Z" fill="#447BF8"/>
<path d="M71.634 38.0641L42.7206 20.4097C42.7536 20.4929 42.7857 20.576 42.8137 20.6604L72.043 38.5076C71.9209 38.3813 71.7854 38.2365 71.634 38.0641Z" fill="#447BF8"/>
<path d="M33.1967 12.9306L27.277 9.31616C27.2133 9.34834 27.1516 9.37528 27.0935 9.39781L33.0608 13.0414C33.1057 13.0041 33.1511 12.9673 33.1967 12.9306Z" fill="#447BF8"/>
<path d="M41.0273 17.9057L70.5131 35.9094C70.5181 35.8556 70.5262 35.7957 70.539 35.7315L40.5523 17.4219C40.7129 17.5785 40.8716 17.7396 41.0273 17.9057Z" fill="#447BF8"/>
<path d="M34.4406 12.0264L28.1384 8.17847C28.1213 8.23936 28.1057 8.29415 28.0911 8.34354L34.2884 12.1274C34.3388 12.0934 34.3897 12.0599 34.4406 12.0264Z" fill="#447BF8"/>
<path d="M40.763 16.0807L71.3185 34.7374C71.3733 34.7082 71.4289 34.6784 71.4848 34.645L40.9931 16.0273C40.916 16.0442 40.8395 16.0628 40.763 16.0807Z" fill="#447BF8"/>
<path d="M35.8195 11.2049L28.5437 6.76245L28.4942 6.92582L35.6526 11.2967C35.7081 11.2659 35.7637 11.2352 35.8195 11.2049Z" fill="#447BF8"/>
<path d="M42.9189 15.7334L72.2363 33.6339C72.253 33.5752 72.2664 33.5185 72.2769 33.4649L43.1988 15.7102C43.1057 15.7168 43.0123 15.7249 42.9189 15.7334Z" fill="#447BF8"/>
<path d="M37.3301 10.4632L29.0928 5.43359C29.0667 5.48013 29.0408 5.52867 29.0145 5.57945L37.1477 10.5455C37.2084 10.5177 37.2694 10.4903 37.3301 10.4632Z" fill="#447BF8"/>
<path d="M44.9003 15.2792L64.6219 27.3209C64.6437 27.2785 64.6726 27.233 64.7119 27.1821L44.9518 15.1167L44.9003 15.2792ZM66.1956 28.2817L71.698 31.6414C71.4436 31.4226 71.1848 31.3881 70.6429 30.9062C70.5286 30.8044 70.4205 30.7075 70.3194 30.606L66.4021 28.214C66.3371 28.2364 66.2686 28.259 66.1956 28.2817Z" fill="#447BF8"/>
<path d="M45.3417 13.8847L65.7166 26.3255C65.7744 26.2869 65.8255 26.2549 65.872 26.2266L45.3931 13.7222L45.3417 13.8847ZM68.1834 27.8316L69.273 28.497C69.112 28.2762 68.8803 28.0438 68.5608 27.9174C68.4289 27.8652 68.3063 27.8406 68.1834 27.8316Z" fill="#447BF8"/>
<path d="M38.9708 9.80108L30.3366 4.52905L30.1277 4.59511L38.7731 9.87401C38.839 9.84954 38.9048 9.82501 38.9708 9.80108Z" fill="#447BF8"/>
<path d="M45.7829 12.4907L66.8494 25.3537C66.8819 25.3074 66.9124 25.2614 66.9412 25.2159L45.8344 12.3281L45.7829 12.4907Z" fill="#447BF8"/>
<path d="M40.7482 9.22293L31.9128 3.82788C31.8846 3.87325 31.8509 3.91701 31.8103 3.95907L40.534 9.28582C40.6056 9.26452 40.6771 9.2433 40.7482 9.22293Z" fill="#447BF8"/>
<path d="M46.2242 11.0959L67.4277 24.0422C67.4401 23.9897 67.4525 23.9324 67.4643 23.8708L46.2757 10.9336L46.2242 11.0959Z" fill="#447BF8"/>
<path d="M42.6842 8.74065L32.2418 2.36475C32.2219 2.42 32.2046 2.47402 32.1897 2.52681L42.4493 8.79104C42.5283 8.77383 42.6069 8.75701 42.6842 8.74065Z" fill="#447BF8"/>
<path d="M46.6656 9.7016L67.4843 22.4134C67.4736 22.3413 67.4615 22.2693 67.4479 22.1974L46.7171 9.53931L46.6656 9.7016Z" fill="#447BF8"/>
<path d="M44.8524 8.40098L33.0627 1.20239C33.0217 1.23843 32.9793 1.27725 32.9361 1.31885L44.5809 8.42907C44.6741 8.41842 44.7645 8.40916 44.8524 8.40098Z" fill="#447BF8"/>
<path d="M34.2827 0.477369L66.8764 20.3786C66.8412 20.2915 66.8059 20.2053 66.7707 20.1203L34.4923 0.411621C34.4206 0.432459 34.3508 0.454218 34.2827 0.477369Z" fill="#447BF8"/>
<path d="M36.2767 0.0304822L50.8641 8.93741L50.869 8.74671L36.5439 0C36.4515 0.0089519 36.3623 0.0192172 36.2767 0.0304822ZM52.764 10.0975L66.1048 18.2432C66.0952 18.1725 66.0902 18.1049 66.0905 18.0407L52.9402 10.0113C52.9139 10.0262 52.886 10.041 52.8562 10.0554C52.8326 10.0667 52.8015 10.0814 52.764 10.0975Z" fill="#447BF8"/>
<path d="M39.437 0.296387L42.6137 2.23611L42.5796 2.1885C42.5639 2.16681 42.4654 2.03292 42.3051 1.85365L40.1102 0.513546L40.0875 0.505985C39.8662 0.432443 39.6528 0.361363 39.437 0.296387ZM44.0733 3.12738L50.7594 7.20987C50.6973 7.08802 50.6196 6.98083 50.5309 6.87634L44.4268 3.14922C44.2987 3.14582 44.1811 3.13826 44.0733 3.12738ZM53.8214 9.07946L66.7739 16.9882C66.7898 16.9579 66.805 16.9256 66.8195 16.8912L66.8421 16.836L53.9424 8.95945C53.8991 9.00097 53.8589 9.04094 53.8214 9.07946Z" fill="#447BF8"/>
<path d="M46.6907 3.06201L48.5393 4.1908C48.4213 4.04688 48.2555 3.86637 48.0365 3.69004L47.3428 3.26644C47.0984 3.15855 46.8739 3.09813 46.6907 3.06201ZM55.1825 8.2469L66.165 14.9528C66.1237 14.8555 66.1051 14.7817 66.0918 14.7143L55.56 8.28379C55.3905 8.26287 55.2714 8.25138 55.1825 8.2469Z" fill="#447BF8"/>
<path d="M58.0017 8.30447L60.6108 9.89762C60.5739 9.81798 60.5565 9.74212 60.5447 9.6634L58.2124 8.23926C58.133 8.26056 58.0642 8.28255 58.0017 8.30447ZM61.6782 10.5493L63.8976 11.9046C63.8803 11.8421 63.8545 11.7576 63.8173 11.6616L62.1795 10.6616C62.0967 10.6476 62.0053 10.6291 61.903 10.6044C61.8245 10.5854 61.7497 10.5673 61.6782 10.5493Z" fill="#447BF8"/>
<path d="M35.7688 28.382C35.5636 28.2434 35.3661 28.1035 35.1772 27.9622C33.3058 29.4794 31.7371 31.0358 31.4537 32.638C31.2221 33.9494 31.6378 34.9428 32.4542 35.8701C32.7232 35.8246 32.9955 35.7742 33.2691 35.7193C32.3273 34.7866 31.934 33.9391 32.1422 32.7597C32.3943 31.3337 33.9366 29.8513 35.7688 28.382Z" fill="#447BF8"/>
<path d="M32.4455 20.0055C32.7676 19.232 33.3913 18.504 34.1889 17.8477C36.4891 15.7092 40.6297 14.4446 43.8175 14.3784L45.3069 9.67212C41.7065 9.88959 30.6492 12.7468 30.6492 20.2821C30.6492 21.9673 31.2593 23.239 32.2146 24.298C31.7393 22.9551 31.8139 21.522 32.4455 20.0055Z" fill="#447BF8"/>
<path d="M38.8559 26.0062C39.5561 25.4642 40.2376 24.9176 40.8368 24.3782C41.6434 23.6519 42.0467 22.8348 42.0349 21.9501C42.0333 21.8207 42.0219 21.6917 42.0034 21.5637C41.3563 23.3219 39.3368 24.7474 39.2414 24.8135L39.2409 24.8127C38.8807 25.1029 38.5064 25.3937 38.129 25.6833C37.8399 25.5611 37.5429 25.4411 37.2325 25.3248C36.0305 24.8737 34.9595 24.431 34.1336 23.8971H39.2885C39.5189 23.7074 39.784 23.4692 40.05 23.198C40.05 23.198 33.2305 23.198 33.212 23.198H33.2103C33.2147 23.3229 33.3957 23.8971 33.3957 23.8971C33.8662 25.2323 35.0183 26.4724 36.8729 27.6381C37.8813 28.2411 38.7729 28.8207 39.4473 29.4608H36.0379C35.7542 29.6944 35.4804 29.9277 35.2206 30.1599H40.0721C40.4477 30.6731 40.6813 31.2367 40.7336 31.8835H33.6179C33.4529 32.1234 33.3225 32.3572 33.2365 32.5826H40.7118C40.6097 33.2314 40.2752 33.8034 39.777 34.3063H33.3914C33.5302 34.5251 33.723 34.7538 33.9789 35.0054H38.9207C36.3161 36.7676 31.6046 37.4458 29.3935 37.4882L27.9726 41.7617C31.0607 41.5586 43.9396 39.4291 43.9396 32.0156C43.9396 29.6059 42.2299 27.5893 38.8559 26.0062Z" fill="#447BF8"/>
<path d="M33.2568 21.4754L41.2745 21.4885C41.2754 21.4915 41.2765 21.4945 41.277 21.4975C41.2784 21.4945 41.2792 21.4915 41.2805 21.4885H41.2811C41.3124 21.4171 41.3369 21.3451 41.3627 21.2731C41.3745 21.2402 41.3897 21.2073 41.4001 21.1744C41.4341 21.0676 41.4607 20.9609 41.4785 20.8545C41.4796 20.8465 41.4798 20.8392 41.4809 20.8316V20.8308C41.5212 20.5691 41.5103 20.323 41.4482 20.0889C40.7023 18.8216 39.3914 17.6869 38.3933 16.835C38.1524 16.9322 37.9123 17.0334 37.6763 17.1418C37.7385 17.1952 37.8007 17.2483 37.8666 17.3043C38.2311 17.6156 38.6446 17.9697 39.056 18.3528H35.5353C35.2145 18.5777 34.9192 18.811 34.657 19.0522H39.7628C40.2808 19.6005 40.7404 20.1888 41.0259 20.7888L33.466 20.7766C33.3812 21.0121 33.3077 21.2457 33.2568 21.4754Z" fill="#447BF8"/>
</svg>
