<svg width="350" height="350" viewBox="0 0 350 350" fill="none" xmlns="http://www.w3.org/2000/svg">
<path d="M292.11 171.71C295.064 146.461 254.548 81.1791 218.61 61.7681C172.025 36.5821 114.8 52.8291 92.47 105.7C71.729 154.812 101.92 200.9 151.431 213.136C195.524 224 290.024 202.216 292.11 171.71Z" fill="#447BF8"/>
<path opacity="0.9" d="M292.11 171.71C295.064 146.461 254.548 81.1791 218.61 61.7681C172.025 36.5821 114.8 52.8291 92.47 105.7C71.729 154.812 101.92 200.9 151.431 213.136C195.524 224 290.024 202.216 292.11 171.71Z" fill="white"/>
<path d="M175 299.292C249.958 299.292 310.723 295.744 310.723 291.368C310.723 286.992 249.958 283.444 175 283.444C100.042 283.444 39.277 286.992 39.277 291.368C39.277 295.744 100.042 299.292 175 299.292Z" fill="#F5F5F5"/>
<path d="M220.199 208.852H160.468C159.335 208.852 158.417 209.77 158.417 210.903V213.255C158.417 214.387 159.335 215.306 160.468 215.306H220.199C221.332 215.306 222.25 214.387 222.25 213.255V210.903C222.25 209.77 221.332 208.852 220.199 208.852Z" fill="#374054"/>
<path d="M219.632 287.168H222.25L219.24 215.306H215.614L219.632 287.168Z" fill="#447BF8"/>
<path opacity="0.6" d="M219.632 287.168H222.25L219.24 215.306H215.614L219.632 287.168Z" fill="white"/>
<path d="M195.531 287.168H192.913L195.923 215.306H199.549L195.531 287.168Z" fill="#447BF8"/>
<path opacity="0.6" d="M195.531 287.168H192.913L195.923 215.306H199.549L195.531 287.168Z" fill="white"/>
<path d="M185.143 287.168H187.761L184.744 215.306H181.125L185.143 287.168Z" fill="#447BF8"/>
<path opacity="0.6" d="M185.143 287.168H187.761L184.744 215.306H181.125L185.143 287.168Z" fill="white"/>
<path d="M161.035 287.168H158.417L161.434 215.306H165.053L161.035 287.168Z" fill="#447BF8"/>
<path opacity="0.6" d="M161.035 287.168H158.417L161.434 215.306H165.053L161.035 287.168Z" fill="white"/>
<g opacity="0.3">
<path opacity="0.3" d="M219.24 215.299H215.614L215.782 218.358H219.366L219.24 215.299Z" fill="#447BF8"/>
<path opacity="0.3" d="M195.797 218.358H199.374L199.549 215.299H195.923L195.797 218.358Z" fill="#447BF8"/>
<path opacity="0.3" d="M181.125 215.299L181.293 218.358H184.877L184.744 215.299H181.125Z" fill="#447BF8"/>
<path opacity="0.3" d="M161.301 218.358H164.892L165.06 215.299H161.434L161.301 218.358Z" fill="#447BF8"/>
</g>
<path d="M183.456 276.605L177.534 279.755L168.196 267.148L174.125 263.998L183.456 276.605Z" fill="#F5B379"/>
<path d="M175.392 277.809L181.58 273.511C181.631 273.468 181.69 273.436 181.753 273.417C181.817 273.398 181.884 273.392 181.95 273.401C182.016 273.41 182.08 273.432 182.136 273.466C182.193 273.501 182.242 273.547 182.28 273.602L185.983 278.285C186.161 278.543 186.231 278.86 186.177 279.169C186.123 279.478 185.951 279.754 185.696 279.937C183.519 281.393 182.539 281.904 179.69 283.598C177.933 284.634 173.733 287.098 171.15 288.225C168.567 289.352 167.531 286.762 168.525 286.055C170.884 284.389 174.006 281.113 174.713 278.81C174.822 278.41 175.061 278.058 175.392 277.809V277.809Z" fill="#374054"/>
<path opacity="0.2" d="M174.132 264.005L168.196 267.148L172.697 273.224L178.493 269.892L174.132 264.005Z" fill="#0C111D"/>
<path d="M188.433 189.329C188.433 189.329 142.415 187.894 142.233 207.123C142.009 234.759 168.238 271.054 168.238 271.054L178.5 264.229C178.5 264.229 160.524 237.846 160.37 216.272C173.929 212.443 205.87 214.872 210.007 203.602C213.395 194.404 211.624 189.329 211.624 189.329H188.433Z" fill="#447BF8"/>
<path opacity="0.2" d="M188.433 189.329C188.433 189.329 142.415 187.894 142.233 207.123C142.009 234.759 168.238 271.054 168.238 271.054L178.5 264.229C178.5 264.229 160.524 237.846 160.37 216.272C173.929 212.443 205.87 214.872 210.007 203.602C213.395 194.404 211.624 189.329 211.624 189.329H188.433Z" fill="#0C111D"/>
<path d="M181.286 265.986L169.078 273.462L165.249 269.577L178.661 261.128L181.286 265.986Z" fill="#374054"/>
<path d="M174.111 280.126C174.6 279.773 175.046 279.364 175.441 278.908C175.462 278.886 175.476 278.858 175.48 278.828C175.485 278.797 175.481 278.766 175.468 278.739C175.456 278.711 175.435 278.688 175.409 278.672C175.383 278.656 175.353 278.648 175.322 278.649C175.063 278.649 172.767 278.649 172.277 279.398C172.221 279.482 172.187 279.578 172.178 279.679C172.17 279.779 172.187 279.88 172.228 279.972C172.274 280.117 172.358 280.247 172.471 280.35C172.585 280.452 172.723 280.522 172.872 280.553C173.323 280.568 173.765 280.416 174.111 280.126V280.126ZM174.958 278.971C174.111 279.853 173.362 280.322 172.928 280.245C172.831 280.224 172.741 280.176 172.67 280.106C172.598 280.037 172.547 279.95 172.522 279.853C172.496 279.811 172.482 279.762 172.482 279.713C172.482 279.664 172.496 279.615 172.522 279.573C172.802 279.181 174.041 279.006 174.958 278.971V278.971Z" fill="#447BF8"/>
<path d="M175.413 278.936C175.433 278.921 175.45 278.902 175.462 278.88C175.476 278.857 175.483 278.83 175.483 278.803C175.483 278.776 175.476 278.749 175.462 278.726C175.42 278.656 174.44 276.99 173.516 276.836C173.392 276.812 173.263 276.818 173.141 276.853C173.02 276.888 172.908 276.952 172.816 277.039C172.711 277.118 172.634 277.229 172.599 277.356C172.563 277.482 172.571 277.617 172.62 277.739C172.914 278.439 174.531 279.006 175.308 278.957L175.413 278.936ZM173.11 277.2C173.161 277.162 173.218 277.135 173.28 277.121C173.341 277.107 173.405 277.105 173.467 277.116C174.02 277.207 174.692 278.082 175.042 278.614C174.279 278.544 173.131 278.054 172.942 277.599C172.907 277.515 172.886 277.396 173.061 277.242C173.075 277.256 173.089 277.235 173.11 277.2Z" fill="#447BF8"/>
<path d="M172.501 284.333L165.851 284.018L164.759 268.317L171.409 268.632L172.501 284.333Z" fill="#F5B379"/>
<path d="M165.697 282.884L173.222 282.646C173.349 282.636 173.475 282.677 173.572 282.76C173.669 282.842 173.729 282.96 173.74 283.087L174.293 289.03C174.304 289.344 174.191 289.651 173.977 289.882C173.763 290.112 173.466 290.249 173.152 290.262C170.534 290.262 169.274 290.185 165.963 290.262C163.926 290.325 159.922 290.626 157.129 290.262C154.336 289.898 154.763 287.161 155.974 287.056C158.851 286.825 162.708 284.837 164.556 283.29C164.881 283.033 165.282 282.89 165.697 282.884V282.884Z" fill="#374054"/>
<path d="M163.359 284.123C163.961 284.091 164.557 283.992 165.137 283.829C165.166 283.821 165.192 283.805 165.213 283.783C165.233 283.761 165.246 283.733 165.25 283.703C165.255 283.673 165.25 283.643 165.238 283.615C165.225 283.588 165.205 283.565 165.179 283.549C164.962 283.409 163.023 282.149 162.218 282.513C162.126 282.553 162.046 282.616 161.984 282.696C161.923 282.775 161.883 282.869 161.868 282.968C161.827 283.115 161.825 283.27 161.863 283.417C161.901 283.565 161.978 283.7 162.085 283.808C162.455 284.07 162.91 284.183 163.359 284.123V284.123ZM164.696 283.619C163.506 283.892 162.596 283.885 162.302 283.584C162.234 283.511 162.186 283.422 162.162 283.325C162.139 283.228 162.141 283.127 162.169 283.031C162.175 282.982 162.193 282.936 162.223 282.897C162.252 282.857 162.292 282.826 162.337 282.807C162.771 282.618 163.905 283.143 164.696 283.619V283.619Z" fill="#447BF8"/>
<path d="M165.102 283.836C165.125 283.842 165.149 283.842 165.172 283.836C165.195 283.824 165.214 283.805 165.227 283.783C165.241 283.761 165.248 283.736 165.249 283.71C165.249 283.626 165.347 281.694 164.647 281.064C164.555 280.976 164.444 280.912 164.322 280.878C164.199 280.844 164.071 280.84 163.947 280.868C163.813 280.875 163.686 280.928 163.585 281.017C163.485 281.106 163.417 281.226 163.394 281.358C163.261 282.058 164.304 283.458 164.983 283.836C165.022 283.849 165.063 283.849 165.102 283.836V283.836ZM164.101 281.148C164.163 281.144 164.225 281.153 164.282 281.175C164.34 281.197 164.393 281.231 164.437 281.274C164.857 281.652 164.941 282.751 164.948 283.374C164.346 282.898 163.646 281.862 163.737 281.379C163.737 281.288 163.8 281.176 164.024 281.141L164.101 281.148Z" fill="#447BF8"/>
<path opacity="0.2" d="M171.416 268.632L164.759 268.317L165.382 277.298L172.018 277.291L171.416 268.632Z" fill="#0C111D"/>
<path d="M204.799 189.329C204.799 189.329 156.653 193.879 158.403 208.376C160.937 229.278 162.183 274.33 162.183 274.33L174.454 274.813C174.454 274.813 179.655 234.213 176.967 212.772C189.427 212.772 219.933 213.668 222.712 206.164C225.169 199.528 224.294 189.364 224.294 189.364L204.799 189.329Z" fill="#447BF8"/>
<path d="M175.812 275.569L161.084 274.841L160.552 268.429L176.708 269.542L175.812 275.569Z" fill="#374054"/>
<path d="M194.117 146.867C194.026 148.043 193.935 149.065 193.802 150.143C193.669 151.221 193.529 152.243 193.361 153.335C193.032 155.435 192.612 157.535 192.122 159.684C191.168 164.124 189.616 168.414 187.509 172.438C186.88 173.568 186.156 174.643 185.346 175.651C184.44 176.788 183.369 177.784 182.168 178.605C179.858 180.139 177.186 181.041 174.419 181.223C171.996 181.381 169.563 181.145 167.216 180.523C166.108 180.239 165.019 179.889 163.954 179.473C163.422 179.27 162.904 179.046 162.393 178.773C161.882 178.5 161.406 178.276 160.818 177.961L162.659 173.278L163.996 173.446L165.396 173.586C166.334 173.663 167.258 173.712 168.196 173.712C169.897 173.74 171.593 173.545 173.243 173.131C174.565 172.814 175.788 172.177 176.806 171.276C177.242 170.867 177.632 170.412 177.968 169.918C178.382 169.281 178.751 168.617 179.074 167.93C179.814 166.323 180.421 164.659 180.887 162.953C181.419 161.182 181.846 159.327 182.231 157.437C182.616 155.547 182.931 153.636 183.246 151.711L183.659 148.813C183.785 147.861 183.925 146.839 184.016 146.013L194.117 146.867Z" fill="#F5B379"/>
<path d="M194.159 141.162C189.259 136.409 183.169 139.216 180.747 148.162C179.376 152.937 178.439 157.827 177.947 162.771L193.536 165.991C196.371 157.458 199.199 146.034 194.159 141.162Z" fill="#374054"/>
<path opacity="0.3" d="M189.14 150.892C190.253 149.891 193.417 154.392 195.349 159.943C194.803 162.043 194.18 164.066 193.543 165.963L184.163 164.024C184.912 158.48 186.641 153.146 189.14 150.892Z" fill="#0C111D"/>
<path d="M161.602 171.178L158.102 169.841L157.948 177.268C157.948 177.268 163.828 179.809 165.025 176.89L164.605 175.035C164.402 174.217 164.03 173.452 163.513 172.787C162.996 172.123 162.345 171.575 161.602 171.178Z" fill="#F5B379"/>
<path d="M153.972 170.037L151.907 176.267L157.976 177.268L158.13 169.841L153.972 170.037Z" fill="#F5B379"/>
<path d="M159.264 175C159.19 175.001 159.117 174.981 159.054 174.943C158.991 174.905 158.94 174.849 158.907 174.783L152.656 162.75C152.606 162.655 152.596 162.545 152.628 162.442C152.659 162.34 152.73 162.255 152.824 162.204C152.92 162.157 153.03 162.149 153.132 162.181C153.234 162.214 153.319 162.285 153.37 162.379L159.6 174.391C159.65 174.486 159.66 174.596 159.628 174.699C159.597 174.801 159.526 174.887 159.432 174.937C159.381 174.969 159.324 174.99 159.264 175V175Z" fill="#374054"/>
<path d="M193.578 136.395L201.054 134.295L210.658 133.847C212.117 133.777 213.558 134.189 214.76 135.018C215.961 135.848 216.857 137.05 217.308 138.439C219.135 144.039 220.808 152.103 222.047 159.082C223.447 166.915 224.147 178.682 224.294 189.364H188.433C187.614 167.069 184.779 153.888 183.533 146.594C183.285 145.164 183.511 143.693 184.179 142.405C184.846 141.116 185.918 140.082 187.229 139.461L193.578 136.395Z" fill="#374054"/>
<path opacity="0.3" d="M222.047 159.054C221.081 153.559 219.835 147.371 218.449 142.254C212.058 141.176 208.964 155.19 210.861 162.141C212.758 169.092 222.873 164.878 222.873 164.878C222.635 162.785 222.355 160.818 222.047 159.054Z" fill="#0C111D"/>
<path d="M199.78 119.7C201.32 123.48 200.396 130.41 197.358 128.45C194.32 126.49 198.842 117.404 199.78 119.7Z" fill="#374054"/>
<path d="M198.1 122.122L195.195 126.56L191.247 132.601C191.757 133.118 192.17 133.723 192.465 134.386C193.165 135.842 193.788 136.927 190.729 139.013C190.4 139.224 190.139 139.525 189.977 139.879C189.814 140.234 189.757 140.629 189.812 141.015C189.994 141.96 190.932 142.877 194.229 142.296C197.406 141.688 200.306 140.079 202.503 137.704C203.602 136.605 203.35 135.779 202.293 134.638C199.269 131.418 198.373 126.273 198.1 122.122Z" fill="#F5B379"/>
<path opacity="0.2" d="M192.192 131.11L194.614 126.805C194.665 126.917 194.721 127.036 194.782 127.162C194.997 127.694 195.17 128.242 195.3 128.8C195.741 130.711 194.257 133.441 192.626 134.743L192.437 134.372C192.143 133.752 191.766 133.175 191.317 132.657C191.288 132.629 191.255 132.605 191.219 132.587L192.192 131.11Z" fill="#0C111D"/>
<path d="M177.653 116.9C176.75 118.937 179.949 124.705 183.61 122.374C187.271 120.043 179.249 113.295 177.653 116.9Z" fill="#374054"/>
<path d="M195.3 143.535C195.252 143.535 195.205 143.519 195.168 143.488C195.13 143.457 195.105 143.414 195.097 143.367C194.831 141.638 193.697 140.567 192.416 139.265C190.792 137.676 188.951 135.87 188.349 132.335C188.34 132.283 188.351 132.229 188.382 132.186C188.412 132.143 188.458 132.113 188.51 132.104C188.562 132.094 188.616 132.106 188.659 132.136C188.702 132.167 188.732 132.213 188.741 132.265C189.329 135.674 191.121 137.431 192.696 138.978C193.991 140.245 195.209 141.442 195.496 143.304C195.501 143.33 195.501 143.357 195.495 143.383C195.489 143.409 195.478 143.434 195.462 143.455C195.446 143.477 195.426 143.495 195.403 143.509C195.38 143.523 195.355 143.531 195.328 143.535H195.3Z" fill="white"/>
<path d="M196.791 114.849C198.191 121.191 199.283 124.838 197.022 128.849C193.606 134.918 185.066 134.092 181.818 128.254C178.892 123.004 177.149 113.512 182.588 109.417C183.805 108.512 185.231 107.929 186.733 107.722C188.235 107.515 189.765 107.69 191.181 108.232C192.598 108.774 193.854 109.664 194.835 110.821C195.816 111.978 196.488 113.363 196.791 114.849V114.849Z" fill="#F5B379"/>
<path d="M198.674 119.203C196.49 122.304 190.764 116.613 191.233 112.791C185.549 116.025 179.375 120.344 175.63 116.704C171.304 112.504 172.487 106.484 177.555 105.945C176.659 107.695 181.755 108.472 184.464 105.77C189.049 101.234 196.294 102.179 196.161 105.854C199.654 104.468 203.469 112.392 198.674 119.203Z" fill="#374054"/>
<path d="M195.489 106.883C196.84 105.875 195.944 102.284 192.808 101.234C195.79 101.619 198.877 103.838 195.489 106.883Z" fill="#374054"/>
<path d="M200.697 118.923C200.757 120.373 200.284 121.795 199.367 122.92C198.163 124.355 196.308 123.214 195.867 121.422C195.482 119.819 195.979 117.334 197.561 116.564C199.143 115.794 200.613 117.117 200.697 118.923Z" fill="#F5B379"/>
<path d="M187.691 119.994C187.859 120.505 187.733 121.023 187.397 121.142C187.061 121.261 186.697 120.946 186.494 120.442C186.291 119.938 186.452 119.413 186.788 119.287C187.124 119.161 187.523 119.476 187.691 119.994Z" fill="#374054"/>
<path d="M181.951 122.094C182.126 122.612 181.993 123.13 181.657 123.249C181.321 123.368 180.922 123.053 180.754 122.549C180.586 122.045 180.719 121.52 181.048 121.401C181.377 121.282 181.783 121.583 181.951 122.094Z" fill="#374054"/>
<path d="M183.918 121.8C183.941 123.331 183.762 124.858 183.386 126.343C184.415 126.721 185.549 125.832 185.549 125.832L183.918 121.8Z" fill="#CD8543"/>
<path d="M186.991 128.681C187.587 128.485 188.137 128.17 188.608 127.755C189.078 127.34 189.459 126.833 189.728 126.266C189.744 126.227 189.745 126.183 189.729 126.144C189.713 126.104 189.683 126.073 189.644 126.056C189.604 126.042 189.56 126.043 189.521 126.06C189.482 126.077 189.451 126.108 189.434 126.147C189.133 126.758 188.696 127.292 188.156 127.707C187.616 128.123 186.987 128.408 186.319 128.541C186.297 128.544 186.276 128.551 186.257 128.562C186.238 128.574 186.222 128.589 186.209 128.607C186.196 128.625 186.187 128.645 186.182 128.667C186.178 128.688 186.177 128.711 186.182 128.732C186.186 128.754 186.195 128.774 186.207 128.793C186.22 128.811 186.236 128.826 186.255 128.838C186.274 128.849 186.295 128.857 186.317 128.86C186.338 128.863 186.361 128.862 186.382 128.856C186.589 128.811 186.792 128.753 186.991 128.681V128.681Z" fill="#374054"/>
<path d="M188.216 117.768C188.265 117.745 188.306 117.708 188.335 117.663C188.38 117.591 188.395 117.505 188.376 117.422C188.358 117.34 188.308 117.268 188.237 117.222C187.823 116.943 187.346 116.769 186.849 116.718C186.352 116.667 185.85 116.739 185.388 116.928C185.349 116.945 185.314 116.97 185.286 117.001C185.257 117.032 185.235 117.069 185.22 117.109C185.206 117.149 185.2 117.191 185.202 117.233C185.204 117.276 185.215 117.317 185.234 117.355C185.272 117.431 185.338 117.488 185.417 117.516C185.497 117.543 185.585 117.538 185.661 117.502C186.026 117.361 186.42 117.31 186.808 117.354C187.197 117.398 187.57 117.535 187.894 117.754C187.941 117.787 187.996 117.805 188.053 117.808C188.11 117.81 188.167 117.796 188.216 117.768V117.768Z" fill="#374054"/>
<path d="M180.817 118.776C180.83 118.723 180.83 118.667 180.817 118.615C180.783 118.537 180.72 118.476 180.641 118.444C180.563 118.413 180.475 118.414 180.397 118.447C179.931 118.627 179.517 118.921 179.192 119.301C178.867 119.681 178.641 120.135 178.535 120.624C178.521 120.706 178.541 120.791 178.589 120.859C178.638 120.927 178.711 120.974 178.794 120.988C178.877 121.002 178.961 120.982 179.03 120.933C179.098 120.885 179.144 120.811 179.158 120.729C179.249 120.347 179.432 119.993 179.69 119.698C179.949 119.403 180.276 119.175 180.642 119.035C180.691 119.01 180.732 118.973 180.763 118.928C180.794 118.882 180.812 118.83 180.817 118.776Z" fill="#374054"/>
<path d="M216.069 138.6C216.769 139.734 217.329 140.756 217.91 141.848C218.491 142.94 219.051 144.004 219.597 145.096C220.703 147.273 221.697 149.513 222.663 151.795C223.629 154.077 224.476 156.429 225.204 158.879C226.001 161.451 226.535 164.096 226.8 166.775C226.941 168.339 226.887 169.915 226.639 171.465C226.479 172.488 226.168 173.481 225.715 174.412C225.191 175.464 224.462 176.402 223.573 177.17C222.772 177.866 221.858 178.42 220.871 178.808C220.042 179.134 219.181 179.368 218.302 179.508C216.818 179.74 215.31 179.78 213.815 179.627C212.48 179.514 211.156 179.301 209.853 178.99C208.609 178.707 207.38 178.361 206.171 177.954C203.795 177.167 201.487 176.189 199.269 175.028L201.04 170.317C205.394 171.143 210.07 171.906 213.997 171.668C214.856 171.623 215.706 171.478 216.531 171.234C217.231 171.024 217.588 170.709 217.56 170.611C217.532 170.513 217.518 170.611 217.504 170.541C217.49 170.471 217.504 170.464 217.504 170.107C217.547 169.32 217.5 168.531 217.364 167.755C217.029 165.757 216.506 163.796 215.803 161.896C215.103 159.866 214.256 157.815 213.339 155.785C212.422 153.755 211.435 151.718 210.434 149.688C209.93 148.671 209.41 147.665 208.873 146.671L207.291 143.738L216.069 138.6Z" fill="#F5B379"/>
<path d="M212.8 133.917C206.038 132.888 202.713 138.691 205.898 147.357C207.543 152.045 209.609 156.573 212.072 160.888L226.653 154.497C224 145.922 219.716 134.974 212.8 133.917Z" fill="#374054"/>
<path d="M197.288 169.673L194.166 170.611L198.597 176.911C198.597 176.911 205.163 174.559 203.819 171.703L202.167 170.765C200.753 169.946 198.961 169.099 197.288 169.673Z" fill="#F5B379"/>
<path d="M191.401 174.951L194.53 178.073L198.597 176.904L194.166 170.611L191.401 174.951Z" fill="#F5B379"/>
<path d="M198.226 120.925C198.783 120.925 199.234 120.379 199.234 119.707C199.234 119.034 198.783 118.489 198.226 118.489C197.669 118.489 197.218 119.034 197.218 119.707C197.218 120.379 197.669 120.925 198.226 120.925Z" fill="white"/>
<path d="M199.059 122.927L198.478 122.906L198.121 120.099L199.227 119.854L199.059 122.927Z" fill="white"/>
<path d="M203.077 175.84C200.977 175.84 199.115 175.525 197.988 174.503C197.568 174.098 197.24 173.607 197.029 173.063C196.817 172.519 196.727 171.935 196.763 171.353C196.827 168.466 197.277 165.601 198.1 162.834C199.073 159.019 199.843 156.009 197.505 152.292C193.781 146.391 194.894 138.138 197.505 132.965C199.5 129.01 198.8 124.6 198.548 122.976C198.513 122.766 198.485 122.598 198.471 122.486C198.468 122.46 198.471 122.433 198.478 122.408C198.486 122.382 198.499 122.359 198.516 122.338C198.533 122.318 198.554 122.302 198.577 122.29C198.601 122.278 198.627 122.271 198.653 122.269C198.706 122.263 198.759 122.278 198.801 122.311C198.843 122.343 198.87 122.391 198.877 122.444C198.877 122.549 198.912 122.71 198.94 122.913C199.206 124.6 199.899 129.073 197.841 133.147C195.286 138.222 194.194 146.307 197.841 152.047C200.27 155.904 199.444 159.145 198.485 162.897C197.679 165.627 197.238 168.451 197.176 171.297C197.138 171.823 197.216 172.351 197.403 172.845C197.59 173.338 197.883 173.784 198.261 174.153C200.151 175.854 204.323 175.42 208.355 175C210.161 174.818 212.03 174.622 213.675 174.622C213.729 174.622 213.78 174.643 213.819 174.681C213.857 174.719 213.878 174.771 213.878 174.825C213.878 174.879 213.857 174.93 213.819 174.968C213.78 175.006 213.729 175.028 213.675 175.028C212.051 175.028 210.175 175.217 208.397 175.406C206.632 175.64 204.856 175.785 203.077 175.84V175.84Z" fill="white"/>
<path d="M222.054 174.342H214.088C213.856 174.342 213.668 174.53 213.668 174.762V175.322C213.668 175.554 213.856 175.742 214.088 175.742H222.054C222.286 175.742 222.474 175.554 222.474 175.322V174.762C222.474 174.53 222.286 174.342 222.054 174.342Z" fill="white"/>
<path d="M272.048 180.404H77.952C77.3344 180.402 76.7425 180.156 76.3058 179.719C75.869 179.283 75.6228 178.691 75.621 178.073C75.6228 177.456 75.869 176.864 76.3058 176.427C76.7425 175.99 77.3344 175.744 77.952 175.742H272.048C272.666 175.744 273.257 175.99 273.694 176.427C274.131 176.864 274.377 177.456 274.379 178.073V178.073C274.377 178.691 274.131 179.283 273.694 179.719C273.257 180.156 272.666 180.402 272.048 180.404V180.404Z" fill="#447BF8"/>
<path opacity="0.3" d="M272.048 180.404H226.611C225.993 180.402 225.402 180.156 224.965 179.719C224.528 179.283 224.282 178.691 224.28 178.073V178.073C224.282 177.456 224.528 176.864 224.965 176.427C225.402 175.99 225.993 175.744 226.611 175.742H272.048C272.666 175.744 273.257 175.99 273.694 176.427C274.131 176.864 274.377 177.456 274.379 178.073V178.073C274.377 178.691 274.131 179.283 273.694 179.719C273.257 180.156 272.666 180.402 272.048 180.404V180.404Z" fill="#374054"/>
<path d="M269.906 290.234H274.379L269.234 180.404H263.046L269.906 290.234Z" fill="#374054"/>
<path opacity="0.1" d="M269.906 290.234H274.379L269.234 180.404H263.046L269.906 290.234Z" fill="white"/>
<path d="M228.753 290.234H224.28L229.425 180.404H235.613L228.753 290.234Z" fill="#374054"/>
<path opacity="0.2" d="M228.753 290.234H224.28L229.425 180.404H235.613L228.753 290.234Z" fill="white"/>
<path d="M121.254 290.234H125.72L120.575 180.404H114.387L121.254 290.234Z" fill="#374054"/>
<path opacity="0.1" d="M121.254 290.234H125.72L120.575 180.404H114.387L121.254 290.234Z" fill="white"/>
<path d="M80.094 290.234H75.621L80.766 180.404H86.954L80.094 290.234Z" fill="#374054"/>
<path opacity="0.2" d="M80.094 290.234H75.621L80.766 180.404H86.954L80.094 290.234Z" fill="white"/>
<path d="M231.343 186.249H82.068V195.454H231.343V186.249Z" fill="#374054"/>
<path opacity="0.2" d="M231.343 186.249H82.068V195.454H231.343V186.249Z" fill="white"/>
<path d="M106.631 169.554C106.372 169.554 106.124 169.656 105.941 169.839C105.757 170.021 105.653 170.268 105.651 170.527V174.727C105.651 174.987 105.754 175.236 105.938 175.42C106.122 175.604 106.371 175.707 106.631 175.707H138.376C138.46 175.707 138.541 175.674 138.601 175.615C138.661 175.556 138.696 175.476 138.698 175.392V169.834C138.696 169.75 138.661 169.67 138.601 169.611C138.541 169.552 138.46 169.519 138.376 169.519L106.631 169.554Z" fill="#447BF8"/>
<path opacity="0.9" d="M125.419 170.142H138.719V175.154H125.419C125.269 175.154 125.124 175.094 125.018 174.988C124.912 174.882 124.852 174.737 124.852 174.587V170.702C124.854 170.553 124.914 170.411 125.021 170.306C125.127 170.201 125.27 170.142 125.419 170.142V170.142Z" fill="white"/>
<path d="M123.235 169.554H91.168C90.6268 169.554 90.188 169.993 90.188 170.534V174.769C90.188 175.31 90.6268 175.749 91.168 175.749H123.235C123.776 175.749 124.215 175.31 124.215 174.769V170.534C124.215 169.993 123.776 169.554 123.235 169.554Z" fill="#447BF8"/>
<path opacity="0.2" d="M123.235 169.554H91.168C90.6268 169.554 90.188 169.993 90.188 170.534V174.769C90.188 175.31 90.6268 175.749 91.168 175.749H123.235C123.776 175.749 124.215 175.31 124.215 174.769V170.534C124.215 169.993 123.776 169.554 123.235 169.554Z" fill="#0C111D"/>
<path opacity="0.5" d="M107.464 169.554H102.599C102.379 169.554 102.2 169.733 102.2 169.953V175.35C102.2 175.571 102.379 175.749 102.599 175.749H107.464C107.684 175.749 107.863 175.571 107.863 175.35V169.953C107.863 169.733 107.684 169.554 107.464 169.554Z" fill="#447BF8"/>
<path opacity="0.5" d="M114.485 169.554H109.627C109.407 169.554 109.228 169.733 109.228 169.953V175.35C109.228 175.571 109.407 175.749 109.627 175.749H114.485C114.705 175.749 114.884 175.571 114.884 175.35V169.953C114.884 169.733 114.705 169.554 114.485 169.554Z" fill="#447BF8"/>
<path d="M100.891 161.924C100.762 161.924 100.635 161.95 100.516 161.999C100.397 162.048 100.289 162.12 100.198 162.211C100.107 162.302 100.035 162.41 99.9856 162.529C99.9364 162.648 99.911 162.775 99.911 162.904V168.574C99.911 168.703 99.9364 168.83 99.9856 168.949C100.035 169.068 100.107 169.176 100.198 169.267C100.289 169.358 100.397 169.43 100.516 169.48C100.635 169.529 100.762 169.554 100.891 169.554H135.282C135.366 169.552 135.446 169.518 135.505 169.457C135.564 169.397 135.597 169.316 135.597 169.232V162.232C135.597 162.148 135.564 162.067 135.505 162.007C135.446 161.947 135.366 161.912 135.282 161.91L100.891 161.924Z" fill="#447BF8"/>
<path opacity="0.9" d="M119.7 162.519H135.618V168.966H119.7C119.55 168.966 119.405 168.906 119.299 168.8C119.193 168.694 119.133 168.549 119.133 168.399V163.1C119.131 163.024 119.144 162.949 119.172 162.879C119.2 162.808 119.241 162.744 119.294 162.69C119.347 162.636 119.41 162.593 119.48 162.564C119.549 162.534 119.624 162.519 119.7 162.519Z" fill="white"/>
<path d="M117.488 161.924H90.524C89.9828 161.924 89.544 162.363 89.544 162.904V168.567C89.544 169.108 89.9828 169.547 90.524 169.547H117.488C118.029 169.547 118.468 169.108 118.468 168.567V162.904C118.468 162.363 118.029 161.924 117.488 161.924Z" fill="#447BF8"/>
<path opacity="0.2" d="M117.488 161.924H90.524C89.9828 161.924 89.544 162.363 89.544 162.904V168.567C89.544 169.108 89.9828 169.547 90.524 169.547H117.488C118.029 169.547 118.468 169.108 118.468 168.567V162.904C118.468 162.363 118.029 161.924 117.488 161.924Z" fill="white"/>
<path opacity="0.6" d="M114.961 163.436H95.214C94.8854 163.436 94.619 163.702 94.619 164.031V167.44C94.619 167.769 94.8854 168.035 95.214 168.035H114.961C115.29 168.035 115.556 167.769 115.556 167.44V164.031C115.556 163.702 115.29 163.436 114.961 163.436Z" fill="#447BF8"/>
<path d="M110.978 158.277C110.439 158.277 109.998 158.536 109.998 158.851V161.35C109.998 161.665 110.439 161.924 110.978 161.924H142.73C142.905 161.924 143.045 161.84 143.045 161.742V158.466C143.045 158.361 142.905 158.277 142.73 158.277H110.978Z" fill="#447BF8"/>
<path opacity="0.9" d="M129.64 158.62H143.045V161.574H129.64C129.525 161.574 129.415 161.528 129.333 161.447C129.252 161.366 129.206 161.255 129.206 161.14V159.04C129.21 158.927 129.257 158.821 129.338 158.742C129.419 158.664 129.527 158.62 129.64 158.62V158.62Z" fill="white"/>
<path d="M127.813 158.277H95.284C94.8703 158.277 94.535 158.612 94.535 159.026V161.182C94.535 161.596 94.8703 161.931 95.284 161.931H127.813C128.227 161.931 128.562 161.596 128.562 161.182V159.026C128.562 158.612 128.227 158.277 127.813 158.277Z" fill="#447BF8"/>
<path opacity="0.2" d="M127.813 158.277H95.284C94.8703 158.277 94.535 158.612 94.535 159.026V161.182C94.535 161.596 94.8703 161.931 95.284 161.931H127.813C128.227 161.931 128.562 161.596 128.562 161.182V159.026C128.562 158.612 128.227 158.277 127.813 158.277Z" fill="#0C111D"/>
<path opacity="0.5" d="M99.372 158.277H98.357C98.2758 158.277 98.21 158.343 98.21 158.424V161.784C98.21 161.865 98.2758 161.931 98.357 161.931H99.372C99.4532 161.931 99.519 161.865 99.519 161.784V158.424C99.519 158.343 99.4532 158.277 99.372 158.277Z" fill="#447BF8"/>
<path opacity="0.5" d="M125.776 158.277H124.782C124.701 158.277 124.635 158.343 124.635 158.424V161.784C124.635 161.865 124.701 161.931 124.782 161.931H125.776C125.857 161.931 125.923 161.865 125.923 161.784V158.424C125.923 158.343 125.857 158.277 125.776 158.277Z" fill="#447BF8"/>
<path d="M105.238 152.999C104.699 152.999 104.258 153.258 104.258 153.573V157.696C104.258 158.018 104.699 158.277 105.238 158.277H139.629C139.804 158.277 139.951 158.193 139.951 158.088V153.188C139.951 153.083 139.804 152.999 139.629 152.999H105.238Z" fill="#447BF8"/>
<path opacity="0.9" d="M123.9 153.342H139.951V157.927H123.9C123.785 157.927 123.675 157.881 123.593 157.8C123.512 157.718 123.466 157.608 123.466 157.493V153.776C123.466 153.661 123.512 153.55 123.593 153.469C123.675 153.388 123.785 153.342 123.9 153.342V153.342Z" fill="white"/>
<path d="M122.066 152.999H94.64C94.2263 152.999 93.891 153.334 93.891 153.748V157.528C93.891 157.942 94.2263 158.277 94.64 158.277H122.066C122.48 158.277 122.815 157.942 122.815 157.528V153.748C122.815 153.334 122.48 152.999 122.066 152.999Z" fill="#447BF8"/>
<path opacity="0.1" d="M122.066 152.999H94.64C94.2263 152.999 93.891 153.334 93.891 153.748V157.528C93.891 157.942 94.2263 158.277 94.64 158.277H122.066C122.48 158.277 122.815 157.942 122.815 157.528V153.748C122.815 153.334 122.48 152.999 122.066 152.999Z" fill="#0C111D"/>
<path d="M181.944 174.58H153.055C152.9 174.58 152.752 174.641 152.642 174.75C152.532 174.859 152.469 175.006 152.467 175.161V175.161C152.469 175.316 152.532 175.464 152.642 175.572C152.752 175.681 152.9 175.742 153.055 175.742H181.944C182.098 175.742 182.246 175.681 182.355 175.572C182.464 175.463 182.525 175.315 182.525 175.161V175.161C182.525 175.007 182.464 174.859 182.355 174.75C182.246 174.641 182.098 174.58 181.944 174.58V174.58Z" fill="white"/>
<path d="M238.462 173.194H257.446L259.161 175.679H236.747L238.462 173.194Z" fill="#374054"/>
<path d="M267.778 130.781C267.778 131.286 267.628 131.78 267.347 132.201C267.067 132.621 266.668 132.948 266.201 133.142C265.734 133.335 265.22 133.386 264.725 133.287C264.229 133.188 263.774 132.945 263.416 132.588C263.059 132.23 262.816 131.775 262.717 131.28C262.619 130.784 262.669 130.27 262.863 129.803C263.056 129.336 263.383 128.937 263.804 128.657C264.224 128.376 264.718 128.226 265.223 128.226C265.559 128.225 265.891 128.291 266.202 128.419C266.512 128.547 266.794 128.735 267.032 128.972C267.269 129.21 267.457 129.492 267.585 129.802C267.713 130.113 267.779 130.445 267.778 130.781V130.781Z" fill="#0C111D"/>
<path d="M248.584 174.874C248.451 174.874 248.32 174.841 248.203 174.778C248.085 174.715 247.985 174.624 247.911 174.513C247.837 174.403 247.792 174.276 247.778 174.143C247.765 174.011 247.785 173.877 247.835 173.754L266.126 130.466C266.22 130.285 266.379 130.147 266.571 130.078C266.763 130.009 266.974 130.014 267.162 130.094C267.35 130.173 267.501 130.32 267.585 130.506C267.669 130.692 267.681 130.902 267.617 131.096L249.326 174.377C249.264 174.523 249.161 174.648 249.029 174.737C248.898 174.825 248.743 174.873 248.584 174.874Z" fill="#374054"/>
<path d="M266.868 131.6C266.694 131.598 266.525 131.542 266.385 131.439L233.17 106.526C232.999 106.398 232.886 106.207 232.856 105.996C232.826 105.785 232.881 105.57 233.009 105.399C233.137 105.228 233.328 105.115 233.539 105.085C233.751 105.055 233.965 105.11 234.136 105.238L267.358 130.137C267.492 130.24 267.591 130.383 267.64 130.545C267.69 130.707 267.687 130.88 267.633 131.04C267.579 131.201 267.476 131.34 267.339 131.439C267.202 131.538 267.037 131.592 266.868 131.593V131.6Z" fill="#374054"/>
<path d="M269.423 130.781C269.423 131.286 269.273 131.78 268.992 132.201C268.712 132.621 268.313 132.948 267.846 133.142C267.379 133.335 266.865 133.386 266.37 133.287C265.874 133.188 265.419 132.945 265.061 132.588C264.704 132.23 264.461 131.775 264.362 131.28C264.263 130.784 264.314 130.27 264.507 129.803C264.701 129.336 265.028 128.937 265.449 128.657C265.869 128.376 266.363 128.226 266.868 128.226C267.204 128.225 267.536 128.291 267.847 128.419C268.157 128.547 268.439 128.735 268.677 128.972C268.914 129.21 269.102 129.492 269.23 129.802C269.358 130.113 269.424 130.445 269.423 130.781V130.781Z" fill="#374054"/>
<path d="M233.653 108.43C235.06 108.43 236.201 107.289 236.201 105.882C236.201 104.475 235.06 103.334 233.653 103.334C232.246 103.334 231.105 104.475 231.105 105.882C231.105 107.289 232.246 108.43 233.653 108.43Z" fill="#374054"/>
<path d="M230.083 117.53C229.284 118.329 228.266 118.873 227.158 119.093C226.05 119.313 224.902 119.2 223.858 118.768C222.814 118.336 221.922 117.604 221.295 116.664C220.667 115.725 220.332 114.621 220.332 113.491C220.332 112.361 220.667 111.257 221.295 110.317C221.922 109.378 222.814 108.646 223.858 108.214C224.902 107.781 226.05 107.668 227.158 107.889C228.266 108.109 229.284 108.653 230.083 109.452C231.153 110.524 231.753 111.976 231.753 113.491C231.753 115.005 231.153 116.458 230.083 117.53V117.53Z" fill="#447BF8"/>
<path opacity="0.7" d="M230.083 117.53C229.284 118.329 228.266 118.873 227.158 119.093C226.05 119.313 224.902 119.2 223.858 118.768C222.814 118.336 221.922 117.604 221.295 116.664C220.667 115.725 220.332 114.621 220.332 113.491C220.332 112.361 220.667 111.257 221.295 110.317C221.922 109.378 222.814 108.646 223.858 108.214C224.902 107.781 226.05 107.668 227.158 107.889C228.266 108.109 229.284 108.653 230.083 109.452C231.153 110.524 231.753 111.976 231.753 113.491C231.753 115.005 231.153 116.458 230.083 117.53V117.53Z" fill="white"/>
<path d="M233.653 105.882C232.517 104.745 231.169 103.843 229.684 103.228C228.199 102.612 226.608 102.295 225.001 102.295C223.394 102.295 221.803 102.612 220.318 103.228C218.833 103.843 217.485 104.745 216.349 105.882L233.653 123.2C234.791 122.064 235.694 120.714 236.31 119.228C236.927 117.742 237.244 116.149 237.244 114.541C237.244 112.933 236.927 111.34 236.31 109.854C235.694 108.368 234.791 107.018 233.653 105.882V105.882Z" fill="#374054"/>
<g opacity="0.2">
<path opacity="0.2" d="M216.342 105.882L143.668 175.742H218.225L233.653 123.193L216.342 105.882Z" fill="#447BF8"/>
<path opacity="0.7" d="M216.342 105.882L143.668 175.742H218.225L233.653 123.193L216.342 105.882Z" fill="white"/>
</g>
</svg>
