<svg width="350" height="350" viewBox="0 0 350 350" fill="none" xmlns="http://www.w3.org/2000/svg">
<path d="M260.064 245.896C268.023 232.456 260.764 209.237 253.953 198.758C246.113 186.704 232.302 181.559 219.408 177.653C203.14 172.753 193.83 169.043 187.684 151.445C182.273 135.954 180.082 119.476 173.11 104.664C158.858 74.3748 135.485 43.6378 99.519 54.6628C66.535 64.7778 46.739 98.7628 64.82 130.963C80.08 158.144 116.046 136.136 121.107 173.068C125.825 207.466 86.667 237.097 109.046 269.668C131.306 302.071 161.805 253.652 185.626 240.429C200.921 231.938 203.252 252.329 215.397 259.406C230.069 267.939 249.998 262.906 260.064 245.896Z" fill="#447BF8"/>
<path opacity="0.9" d="M260.064 245.896C268.023 232.456 260.764 209.237 253.953 198.758C246.113 186.704 232.302 181.559 219.408 177.653C203.14 172.753 193.83 169.043 187.684 151.445C182.273 135.954 180.082 119.476 173.11 104.664C158.858 74.3748 135.485 43.6378 99.519 54.6628C66.535 64.7778 46.739 98.7628 64.82 130.963C80.08 158.144 116.046 136.136 121.107 173.068C125.825 207.466 86.667 237.097 109.046 269.668C131.306 302.071 161.805 253.652 185.626 240.429C200.921 231.938 203.252 252.329 215.397 259.406C230.069 267.939 249.998 262.906 260.064 245.896Z" fill="white"/>
<path d="M175 299.292C249.958 299.292 310.723 295.744 310.723 291.368C310.723 286.992 249.958 283.444 175 283.444C100.042 283.444 39.277 286.992 39.277 291.368C39.277 295.744 100.042 299.292 175 299.292Z" fill="#F5F5F5"/>
<path d="M161.091 289.534C161.162 289.75 161.179 289.979 161.141 290.203C161.103 290.427 161.011 290.638 160.873 290.819C160.736 290.999 160.556 291.144 160.35 291.239C160.144 291.335 159.918 291.379 159.691 291.368H62.181C59.136 291.368 59.136 271.537 62.181 271.537H159.719C159.945 271.526 160.17 271.57 160.376 271.665C160.581 271.76 160.76 271.904 160.897 272.084C161.035 272.263 161.127 272.473 161.166 272.696C161.204 272.919 161.188 273.148 161.119 273.364C159.901 277.144 159.901 285.761 161.091 289.534Z" fill="#447BF8"/>
<path opacity="0.8" d="M160.951 273.854H101.78C99.449 273.854 99.449 289.051 101.78 289.051H160.951C159.95 285.236 159.95 277.662 160.951 273.854Z" fill="white"/>
<path opacity="0.2" d="M98.833 289.534C98.9037 289.75 98.9208 289.979 98.8829 290.203C98.845 290.427 98.7532 290.638 98.6154 290.819C98.4776 290.999 98.2979 291.144 98.0919 291.239C97.886 291.335 97.6598 291.379 97.433 291.368H62.181C59.136 291.368 59.136 271.537 62.181 271.537H97.461C97.687 271.526 97.9123 271.57 98.1175 271.665C98.3228 271.76 98.5019 271.904 98.6395 272.084C98.7771 272.263 98.8692 272.473 98.9077 272.696C98.9463 272.919 98.9303 273.148 98.861 273.364C97.643 277.144 97.643 285.761 98.833 289.534Z" fill="#0C111D"/>
<path d="M77.217 271.537H69.16C66.115 271.537 66.115 291.368 69.16 291.368H77.217C74.2 291.368 74.2 271.537 77.217 271.537Z" fill="#447BF8"/>
<path d="M83.566 271.537H80.402C77.357 271.537 77.357 291.368 80.402 291.368H83.566C80.5 291.368 80.5 271.537 83.566 271.537Z" fill="#447BF8"/>
<path d="M56.497 269.892C56.161 270.704 56.987 271.537 58.107 271.537H145.803C149.38 271.537 149.38 253.708 145.803 253.708H58.1C56.98 253.708 56.154 254.534 56.49 255.353C57.89 258.748 57.89 266.497 56.497 269.892Z" fill="#374054"/>
<path opacity="0.2" d="M56.497 269.892C56.161 270.704 56.987 271.537 58.107 271.537H101.108C104.685 271.537 104.685 253.708 101.108 253.708H58.1C56.98 253.708 56.154 254.534 56.49 255.353C57.89 258.748 57.89 266.497 56.497 269.892Z" fill="#0C111D"/>
<path opacity="0.8" d="M56.651 255.787H99.351C102.088 255.787 102.088 269.451 99.351 269.451H56.651C57.827 266 57.827 259.217 56.651 255.787Z" fill="white"/>
<path opacity="0.2" d="M113.533 257.684C113.267 256.893 114.037 256.123 115.101 256.123H139.65C142.254 256.123 142.254 269.115 139.65 269.115H115.101C114.037 269.115 113.267 268.352 113.533 267.561C114.373 264.322 114.373 260.923 113.533 257.684Z" fill="white"/>
<path d="M291.011 261.933C291.088 262.17 291.111 262.421 291.076 262.668C291.041 262.915 290.95 263.15 290.81 263.356C290.67 263.562 290.485 263.734 290.269 263.857C290.052 263.981 289.811 264.053 289.562 264.068H186.522C183.302 264.068 183.302 240.968 186.522 240.968H289.562C289.807 240.985 290.044 241.057 290.257 241.178C290.47 241.3 290.653 241.467 290.792 241.669C290.932 241.871 291.024 242.102 291.061 242.344C291.099 242.586 291.082 242.834 291.011 243.068C289.758 247.513 289.758 257.544 291.011 261.933Z" fill="#447BF8"/>
<path opacity="0.5" d="M291.011 261.933C291.088 262.17 291.111 262.421 291.076 262.668C291.041 262.915 290.95 263.15 290.81 263.356C290.67 263.562 290.485 263.734 290.269 263.857C290.052 263.981 289.811 264.053 289.562 264.068H186.522C183.302 264.068 183.302 240.968 186.522 240.968H289.562C289.807 240.985 290.044 241.057 290.257 241.178C290.47 241.3 290.653 241.467 290.792 241.669C290.932 241.871 291.024 242.102 291.061 242.344C291.099 242.586 291.082 242.834 291.011 243.068C289.758 247.513 289.758 257.544 291.011 261.933Z" fill="white"/>
<path opacity="0.8" d="M290.871 243.684H228.354C225.89 243.684 225.89 261.366 228.354 261.366H290.871C289.8 256.935 289.8 248.122 290.871 243.684Z" fill="white"/>
<path opacity="0.6" d="M225.239 261.933C225.316 262.17 225.339 262.421 225.304 262.668C225.269 262.915 225.178 263.15 225.038 263.356C224.898 263.562 224.713 263.734 224.497 263.857C224.28 263.981 224.039 264.053 223.79 264.068H186.522C183.302 264.068 183.302 240.968 186.522 240.968H223.79C224.035 240.985 224.272 241.057 224.485 241.178C224.698 241.3 224.881 241.467 225.021 241.669C225.16 241.871 225.252 242.102 225.29 242.344C225.327 242.586 225.31 242.834 225.239 243.068C224 247.513 224 257.544 225.239 261.933Z" fill="#447BF8"/>
<path opacity="0.5" d="M210.119 242.697C210.192 242.516 210.222 242.32 210.205 242.126C210.189 241.932 210.127 241.744 210.025 241.578C209.923 241.412 209.783 241.272 209.617 241.169C209.451 241.067 209.263 241.005 209.069 240.989H194.859C191.639 240.989 191.639 264.089 194.859 264.089H209.069C209.264 264.071 209.451 264.008 209.617 263.905C209.783 263.802 209.923 263.662 210.025 263.495C210.127 263.328 210.189 263.14 210.205 262.946C210.221 262.751 210.192 262.555 210.119 262.374C208.684 258.083 208.684 246.974 210.119 242.697Z" fill="white"/>
<path d="M283.619 288.827C283.702 289.134 283.71 289.456 283.644 289.767C283.578 290.078 283.438 290.369 283.237 290.615C283.036 290.861 282.779 291.056 282.487 291.184C282.196 291.311 281.878 291.367 281.561 291.347H174.503C169.932 291.347 169.925 264.047 174.503 264.047H281.603C281.92 264.027 282.238 264.083 282.529 264.21C282.821 264.337 283.078 264.532 283.279 264.779C283.48 265.025 283.62 265.316 283.686 265.627C283.752 265.938 283.744 266.26 283.661 266.567C281.834 271.768 281.841 283.633 283.619 288.827Z" fill="#447BF8"/>
<path opacity="0.2" d="M283.619 288.827C283.702 289.134 283.71 289.456 283.644 289.767C283.578 290.078 283.438 290.369 283.237 290.615C283.036 290.861 282.779 291.056 282.487 291.184C282.196 291.311 281.878 291.367 281.561 291.347H174.503C169.932 291.347 169.925 264.047 174.503 264.047H281.603C281.92 264.027 282.238 264.083 282.529 264.21C282.821 264.337 283.078 264.532 283.279 264.779C283.48 265.025 283.62 265.316 283.686 265.627C283.752 265.938 283.744 266.26 283.661 266.567C281.834 271.768 281.841 283.633 283.619 288.827Z" fill="white"/>
<path opacity="0.8" d="M283.409 267.239H218.68C215.18 267.239 215.18 288.155 218.68 288.155H283.416C281.918 282.912 281.918 272.489 283.409 267.239Z" fill="white"/>
<path opacity="0.6" d="M214.256 288.841C214.34 289.148 214.35 289.47 214.285 289.781C214.219 290.092 214.08 290.383 213.88 290.629C213.679 290.876 213.422 291.071 213.131 291.198C212.84 291.326 212.522 291.381 212.205 291.361H174.503C169.932 291.361 169.925 264.061 174.503 264.061H212.205C212.522 264.041 212.84 264.097 213.131 264.224C213.423 264.352 213.68 264.546 213.881 264.793C214.082 265.039 214.222 265.33 214.288 265.641C214.355 265.952 214.346 266.274 214.263 266.581C212.478 271.782 212.478 283.64 214.256 288.841Z" fill="#447BF8"/>
<path opacity="0.5" d="M191.674 265.013C191.732 264.913 191.762 264.799 191.76 264.683C191.758 264.567 191.724 264.455 191.661 264.357C191.599 264.259 191.511 264.181 191.407 264.13C191.303 264.079 191.187 264.057 191.072 264.068H184.667C180.103 264.068 180.103 291.368 184.667 291.368H191.1C191.215 291.379 191.331 291.357 191.435 291.306C191.539 291.256 191.627 291.177 191.689 291.079C191.752 290.982 191.786 290.869 191.788 290.753C191.79 290.637 191.76 290.523 191.702 290.423C188.923 286.202 188.923 269.227 191.674 265.013Z" fill="white"/>
<path opacity="0.5" d="M201.67 265.013C201.728 264.912 201.757 264.798 201.754 264.682C201.752 264.567 201.718 264.454 201.656 264.356C201.594 264.258 201.506 264.179 201.403 264.127C201.299 264.075 201.184 264.052 201.068 264.061H194.663C190.099 264.061 190.099 291.361 194.663 291.361H201.068C201.183 291.37 201.298 291.348 201.401 291.296C201.504 291.245 201.59 291.166 201.652 291.069C201.713 290.971 201.746 290.859 201.748 290.744C201.75 290.629 201.721 290.515 201.663 290.416C198.919 286.202 198.919 269.22 201.67 265.013Z" fill="white"/>
<path d="M282.569 226.464C282.445 224.52 281.988 222.612 281.218 220.822L281.848 220.514C282.648 222.379 283.122 224.368 283.248 226.394L282.569 226.464Z" fill="#447BF8"/>
<path d="M278.18 217.791H260.792V218.491H278.18V217.791Z" fill="#447BF8"/>
<path d="M164.857 239.078C164.5 240.03 165.375 240.989 166.558 240.989H278.18C281.953 240.989 281.953 220.241 278.18 220.241H166.558C165.375 220.241 164.5 221.207 164.857 222.159C166.327 226.1 166.327 235.123 164.857 239.078Z" fill="#447BF8"/>
<path opacity="0.2" d="M164.857 239.078C164.5 240.03 165.375 240.989 166.558 240.989H230.958C234.738 240.989 234.738 220.241 230.958 220.241H166.558C165.375 220.241 164.5 221.207 164.857 222.159C166.327 226.1 166.327 235.123 164.857 239.078Z" fill="#0C111D"/>
<path opacity="0.8" d="M165.025 222.67H229.089C231.987 222.67 231.987 238.567 229.089 238.567H165.025C166.264 234.577 166.264 226.66 165.025 222.67Z" fill="white"/>
<path opacity="0.2" d="M244.083 224.868C243.803 223.951 244.615 223.062 245.735 223.062H271.677C274.428 223.062 274.428 238.175 271.677 238.175H245.735C244.615 238.175 243.803 237.286 244.083 236.362C245 233.457 245 227.78 244.083 224.868Z" fill="white"/>
<path d="M154.42 68.5998C151.263 71.9808 143.556 68.5998 142.38 77.9098C141.106 87.9478 145.936 92.7708 139.699 95.4098C129.899 99.5048 122.899 115.871 136.507 122.01C150.115 128.149 179.095 121.716 175.833 109.207C172.571 96.6978 173.215 89.9848 177.065 84.0908C182.14 76.2998 181.055 66.2898 176.918 62.6638C170.478 56.9938 161.581 60.8998 154.42 68.5998Z" fill="#374054"/>
<path d="M171.262 108.871C171.209 108.873 171.156 108.854 171.116 108.819C171.076 108.784 171.05 108.735 171.045 108.682C171.04 108.654 171.041 108.625 171.047 108.597C171.054 108.569 171.066 108.543 171.083 108.52C171.1 108.497 171.122 108.478 171.147 108.464C171.171 108.449 171.199 108.44 171.227 108.437C173.929 108.066 175.539 107.401 176.295 106.337C177.233 105.014 176.827 103.047 176.295 100.555C175.469 96.5017 174.328 90.9507 177.968 83.9367C182.385 75.4317 180.768 66.1077 176.631 63.0557C176.585 63.0221 176.554 62.9716 176.545 62.9153C176.536 62.8589 176.549 62.8013 176.582 62.7547C176.617 62.7081 176.669 62.677 176.726 62.6678C176.784 62.6587 176.842 62.6723 176.89 62.7057C181.202 65.8627 182.868 75.4387 178.353 84.1397C174.79 91.0137 175.91 96.4807 176.722 100.471C177.254 103.061 177.674 105.112 176.624 106.589C175.798 107.758 174.097 108.479 171.269 108.871H171.262Z" fill="#374054"/>
<path d="M135.968 96.7469C135.526 96.745 135.084 96.717 134.645 96.6629C134.616 96.6594 134.589 96.6503 134.564 96.6361C134.539 96.6219 134.517 96.6028 134.499 96.58C134.482 96.5572 134.469 96.5311 134.461 96.5033C134.454 96.4754 134.452 96.4464 134.456 96.4179C134.459 96.3893 134.469 96.3617 134.483 96.3366C134.497 96.3116 134.516 96.2896 134.539 96.272C134.562 96.2544 134.588 96.2416 134.616 96.2342C134.643 96.2267 134.672 96.225 134.701 96.2289C136.689 96.4739 138.131 96.1799 139.104 95.3259C140.924 93.7229 140.952 90.3699 140.973 86.4849C140.973 82.0889 141.036 77.1119 143.885 73.7169C143.903 73.6948 143.926 73.6766 143.951 73.6632C143.977 73.6499 144.005 73.6417 144.033 73.6391C144.062 73.6365 144.091 73.6395 144.118 73.6481C144.145 73.6566 144.171 73.6705 144.193 73.6889C144.215 73.7073 144.233 73.7298 144.247 73.7552C144.26 73.7807 144.268 73.8085 144.271 73.8371C144.273 73.8657 144.27 73.8945 144.262 73.9219C144.253 73.9493 144.239 73.9748 144.221 73.9969C141.47 77.2729 141.421 82.1659 141.421 86.4919C141.421 90.4749 141.372 93.9189 139.405 95.6549C138.435 96.4339 137.21 96.8233 135.968 96.7469Z" fill="#374054"/>
<path d="M204.673 220.227C200.004 220.171 198.17 219.877 196.021 219.912C193.872 219.947 193.361 220.325 191.121 220.227C189.609 220.164 189.602 218.365 190.183 217.133C190.638 216.167 191.198 215.194 191.716 213.99L197.638 214.424C198.436 216.678 202.398 217.644 205.87 218.442C207.249 218.771 206.542 220.248 204.673 220.227Z" fill="#447BF8"/>
<path d="M173.796 134.232C173.796 134.232 189.462 147.707 205.296 162.001C211.988 168.056 197.953 214.221 197.953 214.221C197.659 215.208 192.437 213.801 191.653 213.024C191.653 213.024 190.855 177.191 194.25 169.974C159.138 161.098 153.65 143.857 153.65 143.857L156.17 133.161L173.796 134.232Z" fill="#374054"/>
<path opacity="0.2" d="M155.967 148.106C157.932 150.853 160.261 153.321 162.89 155.442C166.39 151.347 165.41 144.732 165.41 144.732L155.967 148.106Z" fill="#0C111D"/>
<path d="M199.171 212.226C199.073 212.926 198.905 214.165 198.814 215.082C198.8 215.23 198.73 215.368 198.618 215.467C198.506 215.566 198.361 215.618 198.212 215.614C195.869 215.43 193.549 215.027 191.282 214.41C191.173 214.38 191.076 214.315 191.007 214.225C190.938 214.136 190.899 214.026 190.897 213.913L190.848 211.358C190.848 211.275 190.865 211.193 190.898 211.116C190.931 211.04 190.98 210.972 191.042 210.916C191.103 210.86 191.175 210.817 191.254 210.791C191.333 210.765 191.416 210.755 191.499 210.763L198.723 211.638C198.792 211.646 198.858 211.667 198.918 211.701C198.978 211.735 199.031 211.781 199.073 211.836C199.115 211.891 199.145 211.954 199.162 212.021C199.179 212.088 199.182 212.158 199.171 212.226Z" fill="#374054"/>
<path opacity="0.3" d="M199.171 212.226C199.073 212.926 198.905 214.165 198.814 215.082C198.8 215.23 198.73 215.368 198.618 215.467C198.506 215.566 198.361 215.618 198.212 215.614C195.869 215.43 193.549 215.027 191.282 214.41C191.173 214.38 191.076 214.315 191.007 214.225C190.938 214.136 190.899 214.026 190.897 213.913L190.848 211.358C190.848 211.275 190.865 211.193 190.898 211.116C190.931 211.04 190.98 210.972 191.042 210.916C191.103 210.86 191.175 210.817 191.254 210.791C191.333 210.765 191.416 210.755 191.499 210.763L198.723 211.638C198.792 211.646 198.858 211.667 198.918 211.701C198.978 211.735 199.031 211.781 199.073 211.836C199.115 211.891 199.145 211.954 199.162 212.021C199.179 212.088 199.182 212.158 199.171 212.226Z" fill="white"/>
<path d="M136.129 253.708C131.383 253.708 129.829 251.923 127.176 251.433C124.936 251.013 124.341 251.209 122.535 250.894C121.023 250.628 120.904 249.592 121.835 248.059C122.442 246.999 122.958 245.889 123.375 244.741L130.571 245.217C131.32 247.142 133.049 251.055 135.688 251.517C138.173 252 138.019 253.708 136.129 253.708Z" fill="#447BF8"/>
<path d="M172.711 134.19C172.711 134.19 156.156 163.625 149.492 181.832C142.492 200.956 131.348 232.232 130.543 245.217C129.353 245.784 125.447 245.567 123.347 244.741C123.347 244.741 121.401 199.941 134.876 181.993C138.089 143.556 143.423 137.41 149.093 132.727L172.711 134.19Z" fill="#374054"/>
<path d="M131.411 242.564C131.325 243.45 131.302 244.341 131.341 245.231C131.351 245.386 131.299 245.538 131.196 245.655C131.094 245.771 130.95 245.843 130.795 245.854C128.114 246.099 124.376 245.238 123.193 244.944C123.083 244.916 122.985 244.853 122.914 244.765C122.844 244.676 122.804 244.567 122.801 244.454L122.71 241.948C122.709 241.865 122.725 241.784 122.757 241.708C122.789 241.632 122.836 241.563 122.896 241.507C122.956 241.45 123.027 241.407 123.105 241.379C123.182 241.351 123.265 241.34 123.347 241.346L130.935 241.997C131.004 242.002 131.071 242.021 131.132 242.052C131.193 242.084 131.248 242.127 131.292 242.18C131.337 242.233 131.37 242.294 131.39 242.36C131.411 242.426 131.418 242.495 131.411 242.564Z" fill="#374054"/>
<path opacity="0.3" d="M131.411 242.564C131.325 243.45 131.302 244.341 131.341 245.231C131.351 245.386 131.299 245.538 131.196 245.655C131.094 245.771 130.95 245.843 130.795 245.854C128.114 246.099 124.376 245.238 123.193 244.944C123.083 244.916 122.985 244.853 122.914 244.765C122.844 244.676 122.804 244.567 122.801 244.454L122.71 241.948C122.709 241.865 122.725 241.784 122.757 241.708C122.789 241.632 122.836 241.563 122.896 241.507C122.956 241.45 123.027 241.407 123.105 241.379C123.182 241.351 123.265 241.34 123.347 241.346L130.935 241.997C131.004 242.002 131.071 242.021 131.132 242.052C131.193 242.084 131.248 242.127 131.292 242.18C131.337 242.233 131.37 242.294 131.39 242.36C131.411 242.426 131.418 242.495 131.411 242.564Z" fill="white"/>
<path d="M177.1 105.315C177.8 106.638 178.556 108.115 179.326 109.515C180.096 110.915 180.873 112.315 181.657 113.68C183.239 116.431 184.891 119.126 186.662 121.667L185.71 120.82C186.412 121.314 187.187 121.696 188.006 121.954C188.997 122.286 190.013 122.539 191.044 122.71C192.122 122.906 193.242 123.039 194.383 123.144C195.524 123.249 196.721 123.312 197.813 123.382H197.96C198.415 123.408 198.846 123.591 199.18 123.901C199.514 124.211 199.73 124.627 199.79 125.078C199.851 125.53 199.752 125.988 199.511 126.375C199.271 126.761 198.903 127.052 198.471 127.197C197.22 127.613 195.94 127.936 194.642 128.163C193.337 128.395 192.018 128.537 190.694 128.59C189.289 128.644 187.882 128.559 186.494 128.338C184.927 128.102 183.412 127.6 182.014 126.854C181.723 126.695 181.465 126.484 181.251 126.231L181.062 126.007C179.949 124.677 178.864 123.319 177.87 121.926C176.876 120.533 175.903 119.126 175 117.726C174.097 116.326 173.222 114.835 172.396 113.358C171.57 111.881 170.786 110.418 170.037 108.801C169.644 107.882 169.616 106.848 169.96 105.909C170.304 104.971 170.994 104.199 171.888 103.752C172.782 103.305 173.813 103.217 174.77 103.504C175.727 103.792 176.538 104.435 177.037 105.301L177.1 105.315Z" fill="#F5B379"/>
<path d="M173.236 99.666C177.807 101.171 178.549 103.222 181.055 110.796C179.389 115.339 172.655 117.642 172.655 117.642C172.655 117.642 164.703 104.692 173.236 99.666Z" fill="#447BF8"/>
<path d="M179.494 109.522C179.235 112.028 178.591 115.017 177.24 120.89C176.19 125.874 176.176 135.59 174.496 136.101C171.269 137.697 163.191 137.081 149.093 132.727C149.541 125.447 150.388 120.505 147.966 103.803C147.814 102.927 147.858 102.029 148.097 101.172C148.335 100.316 148.762 99.5241 149.345 98.8536C149.929 98.183 150.654 97.651 151.469 97.2963C152.284 96.9415 153.168 96.7729 154.056 96.8027C155.078 96.8027 156.156 96.8867 157.255 96.9847C161.132 97.2179 164.987 97.7302 168.791 98.5177C170.03 98.7977 171.311 99.1267 172.529 99.4627C174.674 100.075 176.54 101.413 177.81 103.247C179.08 105.081 179.675 107.298 179.494 109.522Z" fill="#447BF8"/>
<path d="M130.144 138.474L131.544 137.193C131.805 136.955 132.004 136.657 132.126 136.326C132.248 135.995 132.288 135.639 132.244 135.289L131.859 131.95C131.785 131.293 131.557 130.664 131.191 130.114C130.826 129.564 130.335 129.108 129.759 128.786L129.059 128.387C126.56 130.354 125.307 134.316 125.307 134.316L124.824 135.408C124.718 135.628 124.657 135.868 124.644 136.113C124.631 136.357 124.667 136.602 124.75 136.833C124.833 137.063 124.96 137.275 125.126 137.456C125.291 137.637 125.491 137.783 125.713 137.886L127.862 138.866C128.24 139.027 128.656 139.075 129.061 139.006C129.466 138.936 129.842 138.752 130.144 138.474Z" fill="#F5B379"/>
<path d="M203.623 121.66L201.831 120.96C201.499 120.834 201.143 120.791 200.79 120.832C200.438 120.873 200.101 120.999 199.808 121.198L197.008 123.074C196.458 123.443 196.006 123.94 195.688 124.521C195.37 125.102 195.196 125.751 195.181 126.413V127.246C198.072 128.562 202.181 127.848 202.181 127.848L203.371 127.778C203.616 127.77 203.857 127.713 204.08 127.611C204.303 127.51 204.503 127.365 204.67 127.185C204.836 127.006 204.966 126.795 205.05 126.565C205.135 126.335 205.173 126.091 205.163 125.846L205.051 123.487C205.019 123.076 204.866 122.683 204.612 122.358C204.358 122.033 204.014 121.79 203.623 121.66Z" fill="#F5B379"/>
<path d="M152.138 106.057L151.242 106.47L150.262 106.918C149.611 107.233 148.967 107.562 148.323 107.898C147.028 108.598 145.768 109.298 144.529 110.033C143.29 110.768 142.093 111.587 140.931 112.42C139.769 113.253 138.691 114.163 137.641 115.094L138.103 114.506C137.762 115.008 137.462 115.537 137.207 116.088C136.899 116.725 136.612 117.418 136.332 118.125C135.772 119.525 135.226 121.023 134.722 122.528C134.218 124.033 133.707 125.559 133.21 127.085L131.698 131.684C131.551 132.135 131.246 132.519 130.838 132.762C130.43 133.005 129.948 133.092 129.481 133.007C129.013 132.921 128.593 132.669 128.298 132.297C128.003 131.925 127.853 131.458 127.876 130.984C127.953 129.297 128.107 127.659 128.296 126.007C128.485 124.355 128.723 122.71 128.996 121.058C129.269 119.406 129.626 117.747 130.081 116.067C130.305 115.227 130.55 114.387 130.858 113.505C131.183 112.534 131.601 111.596 132.104 110.705C132.192 110.559 132.293 110.42 132.405 110.292L132.573 110.117C133.726 108.845 134.961 107.651 136.269 106.54C137.558 105.444 138.909 104.422 140.315 103.481C141.702 102.54 143.139 101.676 144.62 100.891C145.362 100.499 146.111 100.128 146.874 99.7637C147.259 99.5887 147.637 99.4067 148.036 99.2387C148.435 99.0707 148.799 98.9237 149.296 98.7347C150.249 98.3536 151.314 98.3624 152.261 98.7592C153.208 99.156 153.961 99.909 154.358 100.856C154.754 101.803 154.763 102.868 154.382 103.821C154.001 104.774 153.26 105.539 152.32 105.952L152.138 106.057Z" fill="#F5B379"/>
<path d="M158.9 98.6228C155.47 96.1658 153.384 95.8998 145.082 99.5048C144.095 104.727 147.329 112.392 147.329 112.392C147.329 112.392 158.375 106.638 158.9 98.6228Z" fill="#447BF8"/>
<path d="M159.796 84.0767C160.307 87.9197 160.636 94.8847 157.892 97.0407C157.892 97.0407 161.476 96.9777 168.329 102.585C170.898 99.7847 169.428 98.5737 169.428 98.5737C165.347 97.0267 165.634 93.9397 166.523 91.1187L159.796 84.0767Z" fill="#F5B379"/>
<path d="M166.88 101.451C164.381 101.451 163.114 105.084 163.114 105.084C163.114 105.084 157.108 100.296 156.289 96.9288C157.086 96.6072 157.867 96.2451 158.627 95.8438C158.627 95.8438 165.634 99.8407 166.88 101.451Z" fill="white"/>
<path d="M169.274 101.36C169.274 101.36 171.164 102.06 171.787 104.86C173.068 99.5259 170.569 98.6859 170.569 98.6859C169.943 98.2164 169.164 97.9968 168.385 98.0699C168.896 98.4266 169.265 98.9518 169.428 99.5533C169.59 100.155 169.536 100.794 169.274 101.36Z" fill="white"/>
<path opacity="0.2" d="M162.54 86.9468L166.516 91.1468C166.299 91.8033 166.142 92.478 166.047 93.1628C164.479 92.7218 162.407 90.6848 162.337 88.9628C162.28 88.284 162.349 87.6005 162.54 86.9468Z" fill="#0C111D"/>
<path d="M155.484 78.4836C156.884 84.4616 157.395 87.0166 160.986 89.7466C166.383 93.8486 173.39 91.1886 173.768 85.0006C174.104 79.4006 171.71 70.5806 165.368 68.9006C164.024 68.4966 162.597 68.4587 161.233 68.7909C159.87 69.123 158.62 69.8131 157.612 70.79C156.605 71.7668 155.876 72.9949 155.502 74.3474C155.128 75.7 155.122 77.1278 155.484 78.4836Z" fill="#F5B379"/>
<path d="M156.653 82.7818C158.851 81.7038 161.182 76.4048 158.053 73.8988C160.636 74.3818 163.597 73.6888 166.334 71.5748C169.904 68.7748 175.161 75.7258 173.432 71.6448C170.94 65.7648 163.429 64.2948 156.632 69.1808C149.835 74.0668 150.318 80.0098 156.653 82.7818Z" fill="#374054"/>
<path d="M154.791 81.5849C154.767 81.5825 154.745 81.5725 154.727 81.5564C154.709 81.5403 154.697 81.5189 154.692 81.4954C154.688 81.4719 154.691 81.4475 154.701 81.4258C154.711 81.4042 154.728 81.3863 154.749 81.3749C156.499 80.6189 163.926 79.0369 164.241 78.9739C164.255 78.9698 164.27 78.9687 164.285 78.9708C164.3 78.9728 164.314 78.978 164.326 78.986C164.339 78.9939 164.35 79.0044 164.358 79.0168C164.366 79.0292 164.372 79.0432 164.374 79.0579C164.378 79.0856 164.372 79.1139 164.357 79.1373C164.341 79.1606 164.317 79.1772 164.29 79.1839C164.213 79.1839 156.59 80.8289 154.833 81.5779L154.791 81.5849Z" fill="white"/>
<path opacity="0.2" d="M163.8 79.0998C163.05 78.7698 162.199 78.7497 161.434 79.0438C162.212 79.2159 163.015 79.235 163.8 79.0998Z" fill="#0C111D"/>
<path opacity="0.2" d="M163.737 79.6319C163.373 79.555 162.996 79.5584 162.634 79.6418C162.271 79.7253 161.931 79.8867 161.637 80.1149C162.363 80.1033 163.079 79.9387 163.737 79.6319Z" fill="#0C111D"/>
<path d="M165.102 79.0158C165.2 79.5268 165.543 79.9048 165.872 79.8628C166.201 79.8208 166.383 79.3798 166.285 78.8688C166.187 78.3578 165.837 77.9868 165.515 78.0218C165.193 78.0568 165.004 78.5118 165.102 79.0158Z" fill="#374054"/>
<path d="M171.248 78.3506C171.346 78.8546 171.696 79.2326 172.018 79.1976C172.34 79.1626 172.529 78.7076 172.431 78.2036C172.333 77.6996 171.99 77.3147 171.661 77.3567C171.332 77.3987 171.15 77.8396 171.248 78.3506Z" fill="#374054"/>
<path d="M171.5 77.4059L172.634 76.9019C172.634 76.9019 172.2 77.9309 171.5 77.4059Z" fill="#374054"/>
<path d="M170.1 79.3237C170.706 80.4657 171.454 81.5265 172.326 82.4807C172.087 82.6811 171.807 82.8259 171.506 82.9046C171.204 82.9833 170.889 82.9939 170.583 82.9357L170.1 79.3237Z" fill="#CD8543"/>
<path d="M167.895 85.1967C168.177 85.2207 168.46 85.2207 168.742 85.1967C168.761 85.1943 168.78 85.1878 168.796 85.1779C168.813 85.1679 168.827 85.1546 168.838 85.1388C168.849 85.123 168.857 85.1051 168.861 85.0861C168.865 85.0672 168.865 85.0477 168.861 85.0287C168.854 84.9885 168.832 84.9524 168.8 84.9277C168.767 84.903 168.727 84.8916 168.686 84.8957C168.052 84.9725 167.41 84.9074 166.804 84.7053C166.199 84.5031 165.646 84.1688 165.186 83.7267C165.172 83.7128 165.156 83.7017 165.138 83.6941C165.12 83.6865 165.101 83.6826 165.081 83.6826C165.061 83.6826 165.042 83.6865 165.024 83.6941C165.006 83.7017 164.99 83.7128 164.976 83.7267C164.949 83.7552 164.935 83.7928 164.935 83.8317C164.935 83.8707 164.949 83.9082 164.976 83.9367C165.763 84.6978 166.801 85.1458 167.895 85.1967Z" fill="#374054"/>
<path d="M154.063 83.8389C154.4 84.3202 154.834 84.7262 155.336 85.031C155.839 85.3359 156.399 85.533 156.982 85.6099C158.438 85.7289 158.753 84.0349 158.011 82.5299C157.346 81.1789 155.785 79.4779 154.511 80.0659C153.237 80.6539 153.118 82.5999 154.063 83.8389Z" fill="#F5B379"/>
<path d="M163.135 75.1588C163.174 75.1589 163.213 75.1501 163.248 75.1331C163.283 75.1161 163.314 75.0914 163.338 75.0608C163.563 74.7725 163.856 74.5443 164.191 74.3965C164.525 74.2487 164.891 74.186 165.256 74.2138C165.294 74.2197 165.333 74.2178 165.37 74.2081C165.407 74.1985 165.441 74.1813 165.472 74.1577C165.502 74.134 165.527 74.1045 165.545 74.0708C165.563 74.0371 165.575 74 165.578 73.9618C165.581 73.8815 165.555 73.8026 165.505 73.7397C165.455 73.6767 165.384 73.6339 165.305 73.6188C164.844 73.578 164.381 73.6519 163.956 73.8339C163.531 74.0159 163.157 74.3004 162.869 74.6618C162.835 74.7096 162.815 74.7659 162.812 74.8243C162.808 74.8827 162.821 74.941 162.848 74.9926C162.876 75.0442 162.917 75.0871 162.968 75.1165C163.019 75.1458 163.076 75.1605 163.135 75.1588Z" fill="#374054"/>
<path d="M172.382 74.8997C172.419 74.9039 172.457 74.9005 172.493 74.8896C172.53 74.8788 172.563 74.8608 172.592 74.8367C172.62 74.8094 172.642 74.7767 172.657 74.7406C172.672 74.7046 172.68 74.6658 172.68 74.6267C172.68 74.5876 172.672 74.5489 172.657 74.5128C172.642 74.4768 172.62 74.4441 172.592 74.4167C172.29 74.0369 171.904 73.7319 171.464 73.5255C171.025 73.3191 170.543 73.2169 170.058 73.2267C170.019 73.2299 169.982 73.2412 169.948 73.26C169.914 73.2788 169.884 73.3046 169.861 73.3358C169.838 73.3669 169.822 73.4026 169.813 73.4406C169.805 73.4785 169.805 73.5178 169.813 73.5557C169.825 73.6349 169.866 73.7066 169.928 73.7571C169.99 73.8076 170.069 73.8331 170.149 73.8287C170.534 73.8246 170.915 73.9089 171.262 74.0752C171.609 74.2415 171.913 74.4852 172.151 74.7877C172.179 74.8223 172.214 74.8502 172.254 74.8696C172.294 74.889 172.338 74.8992 172.382 74.8997Z" fill="#374054"/>
<path d="M166.999 82.1869C165.522 82.1869 164.241 80.6189 164.101 78.6099C164.016 77.6637 164.234 76.715 164.724 75.9009C164.917 75.5559 165.19 75.262 165.52 75.0441C165.85 74.8261 166.228 74.6902 166.621 74.6479C168.168 74.5429 169.526 76.1459 169.673 78.2249C169.82 80.3039 168.679 82.0749 167.146 82.1799L166.999 82.1869ZM166.768 74.8999H166.642C166.282 74.9412 165.937 75.0675 165.635 75.2683C165.333 75.4691 165.083 75.7387 164.906 76.0549C164.441 76.8293 164.235 77.7316 164.318 78.6309C164.451 80.5839 165.718 82.0889 167.118 81.9979C168.518 81.9069 169.575 80.2269 169.442 78.2739C169.309 76.3209 168.133 74.8999 166.768 74.8999Z" fill="white"/>
<path d="M173.544 81.8088C172.067 81.8088 170.779 80.2478 170.639 78.2388C170.558 77.2929 170.776 76.3452 171.262 75.5299C171.457 75.1846 171.731 74.8908 172.062 74.6729C172.394 74.455 172.772 74.3192 173.166 74.2769C174.699 74.1719 176.071 75.7748 176.211 77.8468C176.292 78.7928 176.074 79.7405 175.588 80.5558C175.394 80.9018 175.12 81.1962 174.789 81.4143C174.457 81.6323 174.078 81.7676 173.684 81.8088H173.544ZM173.313 74.4938H173.18C172.82 74.5351 172.475 74.6614 172.173 74.8622C171.871 75.063 171.621 75.3326 171.444 75.6488C170.985 76.4257 170.78 77.326 170.856 78.2248C170.989 80.1148 172.179 81.5918 173.544 81.5918H173.67C174.031 81.5522 174.377 81.4266 174.679 81.2257C174.981 81.0247 175.23 80.7542 175.406 80.4368C175.867 79.6636 176.073 78.7647 175.994 77.8678C175.861 75.9708 174.671 74.4938 173.313 74.4938Z" fill="white"/>
<path d="M170.8 78.526C170.781 78.525 170.763 78.5193 170.747 78.5095C170.731 78.4998 170.718 78.4862 170.709 78.47C170.443 78.05 169.666 78.505 169.659 78.505C169.647 78.5126 169.634 78.5177 169.62 78.5201C169.606 78.5224 169.592 78.522 169.578 78.5187C169.564 78.5154 169.551 78.5094 169.54 78.5011C169.529 78.4927 169.519 78.4821 169.512 78.47C169.494 78.4496 169.484 78.4235 169.484 78.3965C169.484 78.3695 169.494 78.3434 169.512 78.323C169.554 78.323 170.478 77.749 170.856 78.323C170.865 78.3345 170.871 78.3478 170.874 78.3619C170.877 78.3761 170.876 78.3907 170.873 78.4047C170.87 78.4188 170.863 78.4319 170.854 78.4432C170.845 78.4545 170.834 78.4636 170.821 78.47C170.821 78.4802 170.82 78.4905 170.816 78.5001C170.813 78.5097 170.807 78.5185 170.8 78.526Z" fill="white"/>
<path d="M165.375 78.0707L166.502 77.5737C166.502 77.5737 166.075 78.6027 165.375 78.0707Z" fill="#374054"/>
</svg>
