<svg width="57" height="57" viewBox="0 0 57 57" fill="none" xmlns="http://www.w3.org/2000/svg">
<path d="M28.7478 50.0135C25.1393 46.8131 23.2883 45.0057 20.8199 45.0244C17.3514 45.0244 16.8594 46.2904 12.3965 47.5189C11.2375 47.8379 9.91897 48.0178 8.43249 48.0178" stroke="#0C111D" stroke-width="2" stroke-linecap="round"/>
<path d="M28.7478 50.0132C32.3563 46.8128 34.2073 45.0054 36.6757 45.0242C40.1442 45.0242 40.6362 46.2901 45.0992 47.5187C46.2581 47.8377 48.0721 48.0176 49.5586 48.0176" stroke="#0C111D" stroke-width="2" stroke-linecap="round"/>
<path d="M33.2072 56C33.2072 56 34.381 50.3547 39.6486 53.0066C44.9162 55.6585 45.7241 55.5885 55.5044 55.9999" stroke="#0C111D" stroke-width="2" stroke-linecap="round"/>
<path d="M23.7928 56C23.7928 56 22.619 50.3547 17.3514 53.0066C12.0838 55.6585 11.2759 55.2992 1.49555 55.7107" stroke="#0C111D" stroke-width="2" stroke-linecap="round"/>
<path d="M56 56C56 56 51.5406 50.6785 49.5586 48.0177" stroke="#0C111D" stroke-width="2" stroke-linecap="round"/>
<path d="M1 56H56" stroke="#0C111D" stroke-width="2" stroke-linecap="round"/>
<path d="M28.7478 46.0219C31.9444 42.2951 33.7028 41.0328 36.1802 41.033C39.6487 41.0332 44.9157 43.5603 46.0901 43.5274" stroke="#0C111D" stroke-width="2" stroke-linecap="round"/>
<path d="M28.7478 46.0221C25.5512 42.2953 23.7928 41.033 21.3154 41.0332C17.8469 41.0334 13.3874 43.5277 7.4415 44.0266" stroke="#0C111D" stroke-width="2" stroke-linecap="round"/>
<path d="M50.5496 44.0266C50.5496 44.5777 50.1059 45.0244 49.5586 45.0244C49.0113 45.0244 48.5676 44.5777 48.5676 44.0266C48.5676 43.4755 49.0113 43.0288 49.5586 43.0288C50.1059 43.0288 50.5496 43.4755 50.5496 44.0266Z" fill="#0C111D"/>
<path d="M39.6487 22.0748C37.4076 31.7433 35.025 33.5772 29.7388 33.5493C26.568 33.1289 25.5986 32.0231 24.7838 29.0593L26.7658 28.5609L24.7838 25.567C25.1228 22.9595 25.5147 21.4418 26.7658 18.5825L29.7388 18.0836L29.2433 13.5936C34.6937 5.61183 38.6577 3.11737 44.6036 1.1218C44.6036 1.1218 45.1937 0.848005 45.0991 1.12142C43.1171 9.10408 42.1262 14.093 40.1442 19.5803L37.6667 21.0775L39.6487 22.0748Z" fill="#1BCCAC" stroke="#0C111D" stroke-width="2" stroke-linecap="round"/>
<path d="M28.7478 46.0221V56M28.7478 41.5321C30.8053 23.0251 34.4256 14.2241 45.0992 1.12183" stroke="#0C111D" stroke-width="2" stroke-linecap="round"/>
<path d="M1.49548 55.5011L8.43242 48.0177" stroke="#0C111D" stroke-width="2" stroke-linecap="round"/>
</svg>
